<svg xmlns="http://www.w3.org/2000/svg" fill="none" viewBox="0 0 120 48" height="48" width="120">
<g clip-path="url(#clip0_1963_292)">
<mask height="17" width="120" y="17" x="0" maskUnits="userSpaceOnUse" style="mask-type:luminance" id="mask0_1963_292">
<path fill="white" d="M120 17H0V33.6474H120V17Z"></path>
</mask>
<g mask="url(#mask0_1963_292)">
<path fill-opacity="0.65" fill="#F2F7F7" d="M69.1064 24.2821V22.2059H65.9548V21.1076C65.9548 19.8213 66.6242 19.1743 67.963 19.1743H68.655V17C68.655 17 67.7224 17.0003 67.2485 17.0003C66.1203 17.0003 65.2027 17.3689 64.5032 18.0986C63.8037 18.8132 63.4502 19.8288 63.4502 21.1302V33.3996H65.9548V24.2821H69.1064Z"></path>
<path fill-opacity="0.65" fill="#F2F7F7" d="M45.3524 23.2062C44.5777 24.0336 44.1865 25.1395 44.1865 26.5237V33.3993H46.6912V26.9524C46.6912 26.0497 46.8792 25.3953 47.2628 24.9966C47.6615 24.5978 48.2481 24.4022 49.0304 24.4022H49.9104V21.965C49.9104 21.965 49.4642 21.9648 49.0536 21.9649L48.549 21.965C47.2102 21.965 46.1497 22.3787 45.3524 23.2062Z"></path>
<path fill-opacity="0.65" fill="#F2F7F7" d="M22.0068 28.7201C22.0218 28.4794 22.0294 28.1785 22.0294 27.8099L22.0369 27.8174C22.0369 26.7191 21.7962 25.7186 21.3224 24.831C20.8485 23.9433 20.1866 23.2437 19.3442 22.7322C18.5169 22.2206 17.5992 21.9648 16.5989 21.9648C15.5007 21.9648 14.5229 22.2206 13.6655 22.7322C12.8005 23.2286 12.1311 23.9207 11.6347 24.8084C11.1609 25.6885 10.9202 26.689 10.9202 27.8174C10.9202 28.9458 11.1609 29.9614 11.6347 30.849C12.1311 31.7216 12.808 32.4062 13.6655 32.9027C14.538 33.3917 15.5233 33.6399 16.6214 33.6399C17.8249 33.6399 18.9004 33.3239 19.8406 32.6845C20.7808 32.0301 21.4202 31.1499 21.7511 30.0366H19.2916C18.8102 30.9769 17.9151 31.4433 16.5914 31.4433C15.7791 31.4433 15.0871 31.2026 14.5154 30.7287C13.9437 30.2472 13.5752 29.5777 13.4173 28.7201H22.0068ZM14.5154 24.8686C15.0871 24.3947 15.7791 24.1539 16.5914 24.1539V24.1464C17.3736 24.1464 18.043 24.4097 18.5996 24.9363C19.1562 25.4478 19.4721 26.0722 19.5548 26.8019H13.4173C13.5903 25.9894 13.9588 25.3425 14.5154 24.8686Z" clip-rule="evenodd" fill-rule="evenodd"></path>
<path fill-opacity="0.65" fill="#F2F7F7" d="M61.7943 27.8099C61.7943 28.1785 61.7868 28.4794 61.7717 28.7201H53.1822C53.3402 29.5777 53.7087 30.2472 54.2803 30.7287C54.852 31.2026 55.544 31.4433 56.3563 31.4433C57.68 31.4433 58.5751 30.9769 59.0565 30.0366H61.516C61.1851 31.1499 60.5457 32.0301 59.6056 32.6845C58.6654 33.3239 57.5898 33.6399 56.3864 33.6399C55.2882 33.6399 54.3029 33.3917 53.4304 32.9027C52.5729 32.4062 51.896 31.7216 51.3996 30.849C50.9258 29.9614 50.6851 28.9458 50.6851 27.8174C50.6851 26.689 50.9258 25.6885 51.3996 24.8084C51.896 23.9207 52.5655 23.2286 53.4304 22.7322C54.2879 22.2206 55.2657 21.9648 56.3638 21.9648C57.3641 21.9648 58.2818 22.2206 59.1091 22.7322C59.9516 23.2437 60.6134 23.9433 61.0873 24.831C61.5611 25.7186 61.8018 26.7191 61.8018 27.8174L61.7943 27.8099ZM56.3488 24.1539C55.5365 24.1539 54.8445 24.3947 54.2729 24.8686C53.7162 25.3425 53.3477 25.9894 53.1747 26.8019H59.3122C59.2295 26.0722 58.9136 25.4478 58.357 24.9363C57.8004 24.4097 57.131 24.1464 56.3488 24.1464V24.1539Z" clip-rule="evenodd" fill-rule="evenodd"></path>
<path fill-opacity="0.65" fill="#F2F7F7" d="M70.114 26.5235C70.114 25.1394 70.5052 24.0336 71.28 23.2061C72.077 22.3786 73.1452 21.9648 74.4763 21.9648C74.8752 21.9648 75.8157 21.9651 75.8157 21.9651V24.4022H74.9577C74.176 24.4022 73.5892 24.5978 73.1903 24.9965C72.8067 25.3952 72.6188 26.0496 72.6188 26.9523V33.3992H70.114V26.5235Z"></path>
<path fill-opacity="0.65" fill="#F2F7F7" d="M87.9343 22.2056H85.7681L85.5274 23.9508C85.1514 23.3114 84.625 22.8224 83.9556 22.4914C83.2862 22.1379 82.5419 21.9648 81.7144 21.9648C80.7739 21.9648 79.9019 22.1981 79.089 22.6569C78.2767 23.1233 77.6303 23.8004 77.1336 24.688C76.6446 25.5682 76.397 26.6213 76.397 27.8174C76.397 29.0135 76.6377 30.0592 77.1336 30.9468C77.6226 31.827 78.2767 32.4965 79.089 32.9553C79.9019 33.4142 80.7739 33.6474 81.7144 33.6474C82.5419 33.6474 83.2862 33.4744 83.9556 33.1434C84.6173 32.7898 85.1438 32.3084 85.5274 31.684L85.716 33.3992H87.9343V22.2056ZM83.828 30.9694C83.3313 31.2553 82.7972 31.3982 82.2256 31.3982C81.2934 31.3982 80.4957 31.0822 79.8416 30.4428C79.2021 29.7884 78.8865 28.9157 78.8865 27.8174C78.8865 27.0877 79.037 26.4483 79.3373 25.9067C79.6384 25.3651 80.0448 24.9513 80.556 24.6655C81.0673 24.3796 81.6243 24.2367 82.2256 24.2367C82.7826 24.2367 83.3167 24.3871 83.828 24.688C84.3392 24.9739 84.7456 25.3876 85.0467 25.9292C85.3623 26.4709 85.5204 27.0877 85.5204 27.8174C85.5204 28.5471 85.3623 29.1866 85.0467 29.7282C84.7456 30.2698 84.3392 30.6835 83.828 30.9694Z" clip-rule="evenodd" fill-rule="evenodd"></path>
<path fill-opacity="0.65" fill="#F2F7F7" d="M90.0847 26.8846C90.0847 25.4027 90.5058 24.2216 91.3485 23.3264C92.1906 22.4162 93.3344 21.9648 94.7855 21.9648C95.4702 21.9648 96.0646 22.0852 96.5758 22.3259C97.1023 22.5667 97.5164 22.845 97.8167 23.1609C98.133 23.4618 98.3508 23.7402 98.4639 23.996H98.509C98.6068 23.7552 98.8024 23.4769 99.1034 23.1609C99.4191 22.845 99.8325 22.5667 100.344 22.3259C100.871 22.0852 101.472 21.9648 102.157 21.9648C103.623 21.9648 104.767 22.4162 105.594 23.3264C106.437 24.2141 106.858 25.4027 106.858 26.8846V33.3992H104.353V27.0727C104.353 26.185 104.157 25.4929 103.759 24.9965C103.376 24.5 102.803 24.2592 102.044 24.2592C101.284 24.2592 100.697 24.5075 100.299 24.9965C99.9157 25.4929 99.7277 26.1925 99.7277 27.0952V33.4217H97.223V27.0952C97.223 26.185 97.0274 25.4854 96.6285 24.9965C96.245 24.5 95.6734 24.2592 94.9139 24.2592C94.1543 24.2592 93.5675 24.5075 93.1686 24.9965C92.7851 25.4929 92.5971 26.185 92.5971 27.0727V33.3992H90.0923V26.8846H90.0847Z"></path>
<path fill-opacity="0.65" fill="#F2F7F7" d="M119.449 28.7201C119.464 28.4794 119.471 28.1785 119.471 27.8099L119.479 27.8174C119.479 26.7191 119.238 25.7186 118.765 24.831C118.29 23.9433 117.628 23.2437 116.786 22.7322C115.959 22.2206 115.041 21.9648 114.041 21.9648C112.943 21.9648 111.965 22.2206 111.107 22.7322C110.243 23.2286 109.573 23.9207 109.077 24.8084C108.603 25.6885 108.362 26.689 108.362 27.8174C108.362 28.9458 108.603 29.9614 109.077 30.849C109.573 31.7216 110.25 32.4062 111.107 32.9027C111.98 33.3917 112.965 33.6399 114.063 33.6399C115.267 33.6399 116.342 33.3239 117.282 32.6845C118.223 32.0301 118.862 31.1499 119.193 30.0366H116.734C116.252 30.9769 115.357 31.4433 114.033 31.4433C113.221 31.4433 112.529 31.2026 111.957 30.7287C111.386 30.2472 111.017 29.5777 110.859 28.7201H119.449ZM111.95 24.8686C112.521 24.3947 113.213 24.1539 114.026 24.1539V24.1464C114.808 24.1464 115.477 24.4097 116.034 24.9363C116.591 25.4478 116.906 26.0722 116.989 26.8019H110.852C111.025 25.9894 111.393 25.3425 111.95 24.8686Z" clip-rule="evenodd" fill-rule="evenodd"></path>
<path fill-opacity="0.65" fill="#F2F7F7" d="M33.906 32.2786C34.7927 33.188 36.0024 33.6394 37.5274 33.6402C38.4962 33.6396 39.3524 33.429 40.0811 33.0158C40.8107 32.5869 41.3748 31.9927 41.7734 31.2479C42.1871 30.5032 42.3902 29.6682 42.3902 28.7429V22.2058H39.8855V28.5549C39.8855 29.4275 39.69 30.112 39.2913 30.6085C38.8927 31.0975 38.3361 31.3457 37.5238 31.3457C36.7115 31.3457 36.1022 31.1051 35.6886 30.6311C35.2749 30.1421 35.0718 29.4425 35.0718 28.5323V22.2058H32.5671V22.2132H28.8665C27.791 22.2132 26.8207 22.4614 25.9482 22.9579C25.0908 23.4393 24.4138 24.1164 23.9174 24.989C23.436 25.8616 23.1953 26.6214 23.1953 27.7122C23.1953 28.8029 23.436 29.7809 23.9174 30.6535C24.4138 31.5261 25.0908 32.2032 25.9482 32.6846C26.8207 33.1661 27.791 33.4068 28.8665 33.4068V33.4218H31.3279V31.2252H28.8891C27.9489 31.2252 27.1742 30.9017 26.5499 30.2473C25.9407 29.5928 25.6398 28.7503 25.6398 27.7197C25.6398 26.6891 25.9407 26.0647 26.5499 25.4103C27.1742 24.7558 27.9564 24.4324 28.8891 24.4324H32.5671V28.7204C32.5671 30.1873 33.0184 31.3683 33.906 32.2786Z"></path>
<path fill-opacity="0.65" fill="#F2F7F7" d="M3.30193 22.2131C1.47421 22.2131 0 23.7553 0 25.5757V25.5832C0 27.4038 1.48173 28.7277 3.30193 28.7277H5.93445C6.85959 28.7277 7.39359 29.3295 7.39359 30.0216C7.39359 30.7137 6.76933 31.323 5.93445 31.323H0.654369V33.4293H6.32557C8.18338 33.4293 9.68768 31.9097 9.68768 30.0517C9.68768 28.1936 8.18338 26.8169 6.32557 26.8169H3.70809C2.8732 26.8169 2.30909 26.2377 2.30909 25.5757C2.30909 24.9137 2.76038 24.3195 3.70809 24.3195H9.03329V22.2131H3.30193Z"></path>
</g>
</g>
<defs>
<clipPath id="clip0_1963_292">
<rect transform="translate(0 17)" fill="white" height="17" width="120"></rect>
</clipPath>
</defs>
</svg>
