<svg xmlns="http://www.w3.org/2000/svg" fill="none" viewBox="0 0 120 48" height="48" width="120">
<mask height="14" width="100" y="17" x="10" maskUnits="userSpaceOnUse" style="mask-type:luminance" id="mask0_1963_312">
<path fill="white" d="M110 17H10V30.6363H110V17Z"></path>
</mask>
<g mask="url(#mask0_1963_312)">
<path fill-opacity="0.65" fill="#F2F7F7" d="M69.4373 17.0002C67.3714 17.0002 65.3519 18.8711 65.1195 21.5742V17.2231H62.1528V30.3429H65.1559V23.9923C65.1559 22.2134 66.4169 19.7041 69.4373 19.7041V17.0002Z"></path>
<path fill-opacity="0.65" fill="#F2F7F7" d="M100.939 28.2425V19.2539H102.678C104.998 19.2539 106.883 20.7037 106.883 23.6758C106.883 26.6478 104.998 28.2425 102.678 28.2425H100.939ZM97.9667 30.3447H103.042C106.158 30.3447 110 28.315 110 23.6758C110 19.1089 106.158 17.2242 103.042 17.2242H97.9667V30.3447Z"></path>
<path fill-opacity="0.65" fill="#F2F7F7" d="M86.595 23.8209C86.595 21.4288 87.8273 19.4716 89.8568 19.4716C91.8141 19.4716 92.9013 21.4288 92.9013 23.8209C92.9013 26.213 91.8141 28.1702 89.8568 28.1702C87.8273 28.1702 86.595 26.213 86.595 23.8209ZM83.5504 23.9658C83.5504 27.8803 85.5799 30.6349 88.7695 30.6349C91.0891 30.6349 92.4663 29.1125 93.1913 26.648V30.3449H96.1625V17.2244H93.1913V20.7039C92.5391 18.3842 91.1617 17.007 88.9872 17.007C85.725 17.007 83.5504 19.979 83.5504 23.9658Z"></path>
<path fill-opacity="0.65" fill="#F2F7F7" d="M15.8716 30.6349C12.1747 30.6349 10 27.6628 10 23.9658C10 20.124 12.3921 17.007 16.9589 17.007C21.6707 17.007 23.2654 20.1965 23.3379 22.0087H19.9309C19.8584 20.9938 18.9886 19.4716 16.8864 19.4716C14.6393 19.4716 13.1895 21.4288 13.1895 23.8209C13.1895 26.213 14.6393 28.1702 16.8864 28.1702C18.9161 28.1702 19.7859 26.5755 20.1484 24.9807H16.8864V23.6759H23.7312V30.3449H20.7283V26.1405C20.5108 27.6628 19.5685 30.6349 15.8716 30.6349Z"></path>
<path fill-opacity="0.65" fill="#F2F7F7" d="M29.8197 30.6347C26.9926 30.6347 25.2529 28.75 25.2529 24.9805V17.2242H28.2974V24.9805C28.2974 26.9377 29.2398 27.88 30.8345 27.88C33.9515 27.88 35.1114 24.0382 35.1114 21.3561V17.2242H38.1559V30.3447H35.1839V25.488C34.6039 28.17 33.0092 30.6347 29.8197 30.6347Z"></path>
<path fill-opacity="0.65" fill="#F2F7F7" d="M56.349 17C53.7515 17 52.1129 19.5092 51.578 21.8292C51.4866 18.7201 49.9576 17 47.5112 17C45.3976 17 43.4367 18.8849 42.9274 21.8668V17.2232H39.9595V30.3439H42.9655V25.6403C42.9655 24.4741 43.4516 19.6886 46.4776 19.6886C48.4379 19.6886 48.6422 21.4568 48.6422 23.8738V30.3439H51.6468V25.6403C51.6468 24.4741 52.153 19.6886 55.179 19.6886C57.1377 19.6886 57.3399 21.4568 57.3399 23.8738V30.3439H60.3486V22.5831C60.3622 18.8599 59.0477 17 56.349 17Z"></path>
<path fill-opacity="0.65" fill="#F2F7F7" d="M75.8863 17C71.9949 17 69.3581 20.0513 69.3581 23.8174C69.3581 27.9671 71.8658 30.6347 75.8863 30.6347C79.7776 30.6347 82.4613 27.5835 82.4613 23.8174C82.4613 19.6677 79.9049 17 75.8863 17ZM75.8863 28.3123C73.6208 28.3123 72.1536 26.3943 72.1536 23.8174C72.1536 21.2404 73.6258 19.3224 75.8863 19.3224C78.1463 19.3224 79.5599 21.2404 79.5599 23.8174C79.5599 26.3943 78.1449 28.3123 75.8863 28.3123Z"></path>
</g>
</svg>
