<svg xmlns="http://www.w3.org/2000/svg" fill="none" viewBox="0 0 120 48" height="48" width="120">
<path fill-opacity="0.65" fill="#F2F7F7" d="M47.4818 19.108L46.9031 19.6867H46.3244L46.1444 18.9537C46.1059 18.7737 45.9387 18.658 45.7458 18.658H42.0425C41.8109 18.658 41.6309 18.838 41.6309 19.0437V20.3168C41.6309 20.5354 41.8109 20.7026 42.0425 20.7026H44.2285V26.6691H41.6824C41.4509 26.6691 41.2709 26.8491 41.2709 27.0548V28.3279C41.2709 28.5465 41.4509 28.7137 41.6824 28.7137H49.6935C49.925 28.7137 50.105 28.5337 50.105 28.3279V27.0548C50.105 26.8363 49.925 26.6691 49.6935 26.6691H46.7488V22.4513C46.7488 21.2684 47.4432 20.6511 48.8063 20.6511H51.018C51.2495 20.6511 51.4295 20.4711 51.4295 20.2653V18.8637C51.4295 18.6451 51.2495 18.4779 51.018 18.4779H49.7063C48.742 18.4651 47.9833 18.6451 47.4818 19.108Z"></path>
<path fill-opacity="0.65" fill="#F2F7F7" d="M57.4733 18.4652C54.2329 18.4652 52.4969 20.1883 52.4969 23.686C52.4969 27.1964 54.22 28.9196 57.4091 28.9196C59.878 28.9196 61.4725 27.8909 61.8968 26.1292C61.9611 25.8848 61.7554 25.6534 61.4982 25.6534H59.9551C59.7879 25.6534 59.6336 25.7563 59.5694 25.9106C59.2993 26.6693 58.5278 27.0293 57.4862 27.0293C55.8659 27.0293 55.0944 26.142 54.9915 24.0717H62.0254C62.4112 20.2012 60.8038 18.4652 57.4733 18.4652ZM55.0687 22.5029C55.313 20.9855 56.0717 20.2783 57.4604 20.2783C58.9392 20.2783 59.6336 21.0627 59.6722 22.5029H55.0687Z"></path>
<path fill-opacity="0.65" fill="#F2F7F7" d="M69.9849 18.4652C69.1106 18.4652 68.4804 18.6581 67.9918 19.121L67.3874 19.6997H66.8345L66.6287 18.9538C66.5773 18.7867 66.423 18.6581 66.2301 18.6581H65.0728C64.8413 18.6581 64.6613 18.8381 64.6613 19.0439V32.2115C64.6613 32.4301 64.8413 32.5973 65.0728 32.5973H66.7702C67.0016 32.5973 67.1817 32.4172 67.1817 32.2115V29.3567L66.9631 27.8265L67.5289 27.698L68.1332 28.2766C68.609 28.7138 69.1877 28.9324 70.0493 28.9324C72.5439 28.9324 74.0484 27.2093 74.0484 23.6988C74.0355 20.1883 72.5439 18.4652 69.9849 18.4652ZM69.1491 26.8235C67.8761 26.8235 67.1688 26.1677 67.1688 24.9204V22.4515C67.1688 21.2042 67.8632 20.5484 69.1491 20.5484C70.7051 20.5484 71.4123 21.5256 71.4123 23.6731C71.3994 25.8463 70.7051 26.8235 69.1491 26.8235Z"></path>
<path fill-opacity="0.65" fill="#F2F7F7" d="M105 20.3168V19.0438C105 18.8252 104.82 18.658 104.588 18.658H100.127V16.1891C100.127 15.9705 99.9465 15.8033 99.7148 15.8033H98.0175C97.7858 15.8033 97.6058 15.9834 97.6058 16.1891V18.658H94.9703C94.7385 18.658 94.5585 18.8381 94.5585 19.0438V20.3168C94.5585 20.5355 94.7385 20.7027 94.9703 20.7027H97.6058V24.4832C97.6058 27.3765 98.9693 28.7138 101.901 28.7138H104.293C104.524 28.7138 104.705 28.5337 104.705 28.328V27.0549C104.705 26.8364 104.524 26.6692 104.293 26.6692H102.287C100.692 26.6692 100.127 26.0391 100.127 24.4703V20.7155H104.588C104.82 20.7027 105 20.5226 105 20.3168Z"></path>
<path fill-opacity="0.65" fill="#F2F7F7" d="M83.9499 26.669H81.3266V15.1602C81.3266 14.9416 81.1466 14.7744 80.9152 14.7744H75.7716C75.5401 14.7744 75.3601 14.9544 75.3601 15.1602V16.4332C75.3601 16.6518 75.5401 16.819 75.7716 16.819H78.8063V26.669H75.3987C75.1672 26.669 74.9872 26.849 74.9872 27.0547V28.3278C74.9872 28.5464 75.1672 28.7136 75.3987 28.7136H83.9499C84.1813 28.7136 84.3613 28.5335 84.3613 28.3278V27.0547C84.3613 26.8362 84.1813 26.669 83.9499 26.669Z"></path>
<path fill-opacity="0.65" fill="#F2F7F7" d="M91.5877 14.7744H89.2735C89.042 14.7744 88.862 14.9544 88.862 15.1602V16.7933C88.862 17.0119 89.042 17.179 89.2735 17.179H91.5877C91.8195 17.179 91.9995 16.999 91.9995 16.7933V15.1602C91.9867 14.9416 91.8067 14.7744 91.5877 14.7744Z"></path>
<path fill-opacity="0.65" fill="#F2F7F7" d="M91.8967 26.6691V19.0437C91.8967 18.8251 91.7167 18.658 91.485 18.658H86.3029C86.0715 18.658 85.8915 18.838 85.8915 19.0437V20.3168C85.8915 20.5354 86.0715 20.7025 86.3029 20.7025H89.3762V26.6691H86.3029C86.0715 26.6691 85.8915 26.8491 85.8915 27.0548V28.3279C85.8915 28.5465 86.0715 28.7137 86.3029 28.7137H95.0467C95.2785 28.7137 95.4585 28.5336 95.4585 28.3279V27.0548C95.4585 26.8363 95.2785 26.6691 95.0467 26.6691H91.8967Z"></path>
<path fill-opacity="0.65" fill="#F2F7F7" d="M23.9113 20.1239H16.3373C15.5915 20.1239 15 19.5195 15 18.7865V14.3373C15 13.5915 15.6044 13 16.3373 13H22.574C23.3198 13 23.9113 13.6044 23.9113 14.3373V20.1239Z"></path>
<path fill-opacity="0.65" fill="#F2F7F7" d="M31.4851 27.2478H23.9112V20.1111H31.4851C32.2181 20.1111 32.8225 20.7155 32.8225 21.4484V25.9105C32.8225 26.6563 32.2181 27.2478 31.4851 27.2478Z"></path>
<path fill-opacity="0.65" fill="#F2F7F7" d="M22.574 34.3846H16.3373C15.6044 34.3846 15 33.7803 15 33.0473V28.5852C15 27.8523 15.6044 27.2479 16.3373 27.2479H23.9113V33.0473C23.9113 33.7803 23.3069 34.3846 22.574 34.3846Z"></path>
</svg>
