<svg xmlns="http://www.w3.org/2000/svg" fill="none" viewBox="0 0 120 48" height="48" width="120">
<g clip-path="url(#clip0_1963_211)">
<path fill-opacity="0.65" fill="#F2F7F7" d="M37.7609 12.0147C38.8155 12.0147 39.8601 12.0147 40.8947 12.0147C40.8947 14.5912 40.8947 17.1452 40.8947 19.6992C40.9197 19.7217 40.9447 19.7466 40.9697 19.7691C40.9996 19.7067 41.0196 19.6367 41.0596 19.5817C42.8339 17.1227 46.2925 16.8003 48.5092 18.8745C49.6962 19.9841 50.301 21.3685 50.5459 22.9479C50.8482 24.9096 50.4459 26.7189 49.3213 28.3432C48.2868 29.8402 46.8148 30.6773 45.0006 30.7148C43.3162 30.7498 41.9493 30.0026 40.9422 28.6356C40.8772 28.5457 40.8097 28.4582 40.6848 28.2883C40.5948 28.9505 40.4973 29.5278 40.4424 30.11C40.4199 30.3549 40.3474 30.4299 40.105 30.4249C39.3978 30.4099 38.6881 30.4124 37.9808 30.4199C37.7934 30.4224 37.7359 30.3724 37.7359 30.1725C37.7484 24.4673 37.7509 18.762 37.7559 13.0568C37.7609 12.7194 37.7609 12.3771 37.7609 12.0147ZM47.4496 24.1349C47.4771 24.1299 47.4221 24.1399 47.4496 24.1349C47.4271 23.5077 47.3671 22.9904 47.1697 22.4681C46.6624 21.1261 45.6503 20.3589 44.2109 20.3114C42.8739 20.2664 41.8618 20.9137 41.277 22.1132C40.6173 23.4652 40.6248 24.8571 41.332 26.1941C42.3441 28.1058 44.8956 28.4607 46.425 26.9288C47.1922 26.1591 47.4846 25.202 47.4496 24.1349Z"></path>
<path fill-opacity="0.65" fill="#F2F7F7" d="M31.496 19.8091C31.561 19.2468 31.6409 18.6845 31.6809 18.1223C31.6984 17.8849 31.7784 17.7699 32.0058 17.7674C32.8055 17.7649 33.6027 17.7649 34.4198 17.7649C34.4198 21.9657 34.4198 26.1541 34.4198 30.3799C34.2324 30.3899 34.05 30.4099 33.8676 30.4099C33.2528 30.4149 32.6405 30.4099 32.0258 30.4149C31.7859 30.4174 31.6934 30.3449 31.6759 30.0775C31.6409 29.5227 31.5435 28.9705 31.471 28.4182C31.4435 28.4132 31.4135 28.4082 31.386 28.4057C31.3186 28.4932 31.2511 28.5806 31.1861 28.6681C30.324 29.8351 29.1694 30.5224 27.73 30.6748C25.6033 30.8997 24.0215 29.9276 22.7969 28.2832C22.0123 27.2287 21.6499 26.0091 21.5624 24.7072C21.435 22.8129 21.8448 21.0636 23.0643 19.5717C24.1389 18.2572 25.5259 17.4875 27.2502 17.51C28.8495 17.53 30.164 18.1872 31.1386 19.4792C31.2236 19.5917 31.3111 19.7066 31.396 19.8191C31.431 19.8166 31.4635 19.8141 31.496 19.8091ZM24.6887 24.2348C24.6337 24.9621 24.8661 25.7068 25.301 26.389C26.6079 28.4407 29.6142 28.3782 30.7838 26.249C31.5735 24.8121 31.551 23.3202 30.7588 21.8933C29.7967 20.159 27.4851 19.7766 25.9707 21.0561C25.0161 21.8633 24.6662 22.9254 24.6887 24.2348Z"></path>
<path fill-opacity="0.65" fill="#F2F7F7" d="M109.972 19.8016C110.035 19.2793 110.11 18.757 110.155 18.2347C110.19 17.8299 110.235 17.7624 110.637 17.7624C111.384 17.7599 112.129 17.7624 112.891 17.7624C112.891 21.9857 112.891 26.1841 112.891 30.4249C112.371 30.4249 111.864 30.4274 111.359 30.4249C111.057 30.4224 110.757 30.4074 110.455 30.4024C110.23 30.3999 110.167 30.29 110.152 30.07C110.112 29.5128 110.037 28.958 109.9 28.3707C109.827 28.4582 109.75 28.5431 109.685 28.6356C108.71 29.9876 107.356 30.6923 105.722 30.7223C104.17 30.7523 102.853 30.095 101.803 28.9505C100.786 27.8434 100.229 26.5214 100.064 25.0295C99.8414 23.0303 100.261 21.1936 101.518 19.6067C102.628 18.2047 104.097 17.44 105.909 17.5175C107.446 17.5825 108.7 18.2622 109.633 19.5067C109.713 19.6142 109.793 19.7191 109.872 19.8266C109.902 19.8141 109.937 19.8066 109.972 19.8016ZM103.16 24.2074C103.103 24.9571 103.333 25.7118 103.78 26.4015C105.097 28.4432 108.081 28.3682 109.263 26.2466C109.957 24.9995 109.99 23.6776 109.473 22.3656C108.61 20.179 105.927 19.6042 104.24 21.236C103.425 22.0207 103.133 23.0178 103.16 24.2074Z"></path>
<path fill-opacity="0.65" fill="#F2F7F7" d="M87.0939 35.2355C86.0768 35.2355 85.0497 35.2355 83.9852 35.2355C84.2551 34.5833 84.5125 33.9535 84.7749 33.3213C85.2072 32.2742 85.642 31.2296 86.0669 30.18C86.1043 30.0875 86.1018 29.9526 86.0643 29.8576C84.5275 25.8992 82.9831 21.9408 81.4412 17.9823C81.4187 17.9249 81.4062 17.8649 81.3887 17.8149C81.4112 17.7899 81.4262 17.7649 81.4387 17.7649C82.4583 17.7624 83.4779 17.7624 84.4975 17.7574C84.7774 17.7549 84.7974 17.9823 84.8573 18.1573C85.2172 19.2093 85.567 20.2614 85.9194 21.316C86.4667 22.9504 87.014 24.5847 87.5613 26.2191C87.5962 26.3265 87.6462 26.429 87.7162 26.6039C87.8012 26.4415 87.8736 26.334 87.9136 26.2166C88.8333 23.5026 89.7504 20.7862 90.6575 18.0673C90.7375 17.8299 90.8425 17.7424 91.0949 17.7449C92.0395 17.7599 92.9866 17.7499 93.9687 17.7499C91.6721 23.5901 89.3905 29.3928 87.0939 35.2355Z"></path>
<path fill-opacity="0.65" fill="#F2F7F7" d="M0.450743 26.4989C1.23293 27.1862 2.06011 27.656 2.99973 27.8934C3.92187 28.1258 4.8615 28.2582 5.80612 27.9983C6.03353 27.9359 6.26344 27.8484 6.46336 27.726C7.19807 27.2711 7.22806 26.284 6.48585 25.8467C6.00105 25.5618 5.44627 25.3844 4.91148 25.192C4.12179 24.9071 3.29962 24.6972 2.52992 24.3723C1.63777 23.9949 0.885571 23.4227 0.573194 22.438C0.165856 21.1436 0.528212 19.4667 1.88018 18.5021C2.74483 17.8848 3.72695 17.595 4.76654 17.5225C6.15848 17.425 7.50295 17.6574 8.77495 18.2447C9.26226 18.4696 9.24976 18.4746 9.23976 18.9944C9.22727 19.7116 9.23727 20.4288 9.23727 21.1785C9.16729 21.1411 9.10982 21.1086 9.05484 21.0761C7.70537 20.2889 6.27094 19.8716 4.70406 20.1365C4.39168 20.1889 4.07931 20.3589 3.80691 20.5338C3.27213 20.8812 3.29712 21.9482 3.94936 22.2131C4.65908 22.5005 5.38629 22.7404 6.111 22.9928C6.70827 23.2002 7.32802 23.3577 7.90779 23.6076C9.10982 24.1249 9.89451 24.997 10.002 26.3565C10.1169 27.8234 9.61462 29.0104 8.36261 29.8351C7.58792 30.3449 6.71326 30.5673 5.80612 30.6698C4.04932 30.8672 2.39497 30.5423 0.840588 29.6927C0.550703 29.5327 0.43325 29.3453 0.443246 29.0054C0.468236 28.1933 0.450743 27.3811 0.450743 26.4989Z"></path>
<path fill-opacity="0.65" fill="#F2F7F7" d="M11.4514 20.3864C11.4514 19.5043 11.4514 18.6446 11.4514 17.7749C11.9437 17.7749 12.4185 17.755 12.8933 17.7824C13.2157 17.7999 13.2957 17.6925 13.2857 17.3776C13.2607 16.6179 13.2807 15.8582 13.2682 15.0985C13.2657 14.8961 13.3207 14.8236 13.5306 14.8261C14.3728 14.8386 15.2174 14.8436 16.0596 14.8361C16.2795 14.8336 16.3195 14.9211 16.3195 15.111C16.312 15.9007 16.3245 16.6929 16.312 17.4826C16.307 17.72 16.3795 17.7799 16.6144 17.7749C17.644 17.76 18.6736 17.7699 19.7306 17.7699C19.7306 18.6446 19.7306 19.5168 19.7306 20.3964C18.6886 20.3964 17.669 20.4064 16.6519 20.3914C16.377 20.3864 16.3045 20.4639 16.307 20.7413C16.317 22.2707 16.2995 23.8001 16.297 25.332C16.297 25.5819 16.302 25.8343 16.347 26.0767C16.5669 27.2587 17.3641 27.8934 18.6861 27.9209C19.1084 27.9284 19.5307 27.8709 19.9955 27.841C19.9955 27.9234 19.9955 28.0209 19.9955 28.1208C19.993 28.8281 19.988 29.5353 19.993 30.2425C19.9955 30.4149 19.958 30.5174 19.7681 30.5424C18.5611 30.6973 17.3591 30.7448 16.192 30.3175C14.5502 29.7177 13.5931 28.5282 13.4006 26.8139C13.2682 25.6393 13.3007 24.4473 13.2782 23.2628C13.2607 22.3981 13.2657 21.536 13.2782 20.6713C13.2807 20.4289 13.1957 20.3739 12.9683 20.3814C12.4735 20.3964 11.9762 20.3864 11.4514 20.3864Z"></path>
<path fill-opacity="0.65" fill="#F2F7F7" d="M71.805 17.7599C72.4398 17.7599 73.0395 17.7599 73.6618 17.7599C73.6618 16.7778 73.6618 15.8257 73.6618 14.8361C73.9017 14.8361 74.1166 14.8361 74.3315 14.8361C75.0187 14.8386 75.706 14.8536 76.3932 14.8336C76.6406 14.8261 76.7181 14.8761 76.7106 15.1335C76.6906 15.9456 76.6981 16.7578 76.6956 17.5675C76.6956 17.6175 76.7006 17.6675 76.7056 17.7474C77.8576 17.7474 78.9972 17.7474 80.1517 17.7474C80.1517 18.6371 80.1517 19.4967 80.1517 20.3964C80.0517 20.3964 79.9543 20.3964 79.8543 20.3964C78.8972 20.3989 77.9401 20.4039 76.9805 20.3964C76.7506 20.3939 76.6831 20.4639 76.6831 20.7013C76.6906 22.2731 76.6856 23.845 76.6756 25.4169C76.6631 27.0063 77.5227 27.9059 79.1196 27.9234C79.5419 27.9284 79.9668 27.8734 80.4041 27.8434C80.4041 28.7056 80.4041 29.5877 80.4041 30.4899C78.9397 30.6948 77.4978 30.7973 76.1183 30.1375C74.8313 29.5203 74.1091 28.4632 73.8117 27.0987C73.7293 26.7164 73.6768 26.319 73.6743 25.9267C73.6593 24.1774 73.6618 22.4306 73.6693 20.6813C73.6693 20.4564 73.5943 20.3914 73.3819 20.3989C72.9346 20.4139 72.4872 20.4189 72.0399 20.4064C71.96 20.4039 71.8175 20.3064 71.8175 20.2489C71.8 19.4268 71.805 18.6071 71.805 17.7599Z"></path>
<path fill-opacity="0.65" fill="#F2F7F7" d="M59.8872 12.0097C60.9418 12.0097 61.9564 12.0097 63.0109 12.0097C63.0109 12.1746 63.0109 12.3171 63.0109 12.4595C63.0134 18.3097 63.0134 24.1574 63.0159 30.0076C63.0159 30.4274 63.0134 30.4249 62.5886 30.4249C61.7864 30.4224 60.9868 30.4149 60.1846 30.4299C59.9322 30.4349 59.8722 30.3649 59.8722 30.115C59.8822 24.3298 59.8822 18.5421 59.8847 12.7569C59.8872 12.5195 59.8872 12.2821 59.8872 12.0097Z"></path>
<path fill-opacity="0.65" fill="#F2F7F7" d="M119.381 30.4299C118.374 30.4299 117.397 30.4324 116.42 30.4224C116.362 30.4224 116.257 30.3049 116.257 30.2425C116.255 26.259 116.26 22.2731 116.262 18.2897C116.262 18.1248 116.262 17.9623 116.262 17.7749C117.31 17.7749 118.334 17.7749 119.381 17.7749C119.381 21.9757 119.381 26.1816 119.381 30.4299Z"></path>
<path fill-opacity="0.65" fill="#F2F7F7" d="M66.4447 17.7675C67.4843 17.7675 68.5014 17.7675 69.5734 17.7675C69.5734 17.9524 69.5734 18.1248 69.5734 18.2972C69.5734 22.2132 69.5684 26.1266 69.5809 30.0426C69.5809 30.365 69.491 30.4399 69.1761 30.4324C68.274 30.4075 67.3693 30.4249 66.4472 30.4249C66.4447 26.1941 66.4447 21.9933 66.4447 17.7675Z"></path>
<path fill-opacity="0.65" fill="#F2F7F7" d="M53.3598 30.4249C53.3598 26.2041 53.3598 22.0057 53.3598 17.7799C54.3719 17.7799 55.3965 17.7799 56.4535 17.7799C56.4585 17.8799 56.471 17.9923 56.471 18.1023C56.471 22.0982 56.466 26.0941 56.476 30.09C56.476 30.3749 56.3986 30.4374 56.1262 30.4324C55.214 30.4149 54.3019 30.4249 53.3598 30.4249Z"></path>
<path fill-opacity="0.65" fill="#F2F7F7" d="M94.1562 28.6731C94.1487 27.676 94.9433 26.8813 95.9529 26.8763C97.015 26.8713 97.7897 27.631 97.8022 28.6856C97.8147 29.7277 97.015 30.5224 95.9429 30.5324C94.9808 30.5424 94.1636 29.6927 94.1562 28.6731Z"></path>
<path fill-opacity="0.65" fill="#F2F7F7" d="M117.834 12.1796C118.789 12.1246 119.571 12.9618 119.581 13.9464C119.591 14.9135 118.839 15.6158 117.824 15.6158C116.827 15.6158 116.087 14.8961 116.085 13.9264C116.085 12.9118 116.812 12.1846 117.834 12.1796Z"></path>
<path fill-opacity="0.65" fill="#F2F7F7" d="M54.9117 12.1821C55.8188 12.1521 56.651 12.8569 56.6485 13.9289C56.646 14.8636 55.9888 15.6158 54.8592 15.6108C53.8796 15.6058 53.1349 14.8536 53.1399 13.889C53.1474 12.9168 53.9146 12.1771 54.9117 12.1821Z"></path>
<path fill-opacity="0.65" fill="#F2F7F7" d="M67.9965 12.1746C68.9886 12.1746 69.7383 12.9393 69.7333 13.9489C69.7308 14.8835 68.9437 15.6258 67.964 15.6183C66.9869 15.6108 66.2372 14.8835 66.2372 13.9414C66.2372 12.9568 67.0169 12.1746 67.9965 12.1746Z"></path>
</g>
<defs>
<clipPath id="clip0_1963_211">
<rect transform="translate(0 12)" fill="white" height="23.7097" width="120"></rect>
</clipPath>
</defs>
</svg>
