<svg xmlns="http://www.w3.org/2000/svg" fill="none" viewBox="0 0 120 48" height="48" width="120">
<path fill-opacity="0.65" fill="#F2F7F7" d="M8.98354 14.3999C8.22352 15.2089 8.80378 16.5736 9.90799 16.5736C10.4762 16.5736 11.2396 15.8552 11.2396 15.3203C11.2396 15.1138 11.0646 14.7369 10.8508 14.4828C10.3375 13.8726 9.51319 13.8362 8.98354 14.3999ZM5.78024 14.9896C4.93147 15.7762 5.49401 17.1743 6.65934 17.1743C7.82046 17.1743 8.36438 15.8418 7.53994 15.0173C7.0229 14.5002 6.32025 14.4892 5.78024 14.9896ZM12.2792 15.0604C11.8107 15.5289 11.7333 15.942 12.0149 16.4709C12.6534 17.6697 14.3931 17.2506 14.3931 15.8979C14.3931 14.7156 13.126 14.2135 12.2792 15.0604ZM2.89831 16.9423C2.27855 17.5619 2.43983 18.5293 3.23304 18.9519C3.73791 19.2207 4.11574 19.1624 4.62047 18.7377C5.53606 17.9674 5.01151 16.5736 3.80609 16.5736C3.43382 16.5736 3.1527 16.6878 2.89831 16.9423ZM15.3286 16.6741C15.0746 16.7764 14.6935 17.5296 14.6935 17.9292C14.6935 18.4222 15.4858 19.1265 16.0404 19.1265C17.1081 19.1265 17.6826 17.6365 16.8989 16.9001C16.5669 16.5883 15.8118 16.4796 15.3286 16.6741ZM8.43451 17.2027C8.25461 17.2896 8.02289 17.5646 7.91973 17.8137C7.69342 18.3602 7.9373 18.9143 8.55705 19.2623C9.27547 19.6655 10.1884 18.9935 10.1884 18.0614C10.1884 17.65 9.52686 17.0219 9.10638 17.0343C8.91686 17.0399 8.61457 17.1156 8.43451 17.2027ZM11.1645 17.3442C10.3722 17.787 10.2315 18.7523 10.8844 19.2657C11.6841 19.8948 12.7413 19.4135 12.7413 18.4201C12.7413 17.5739 11.8461 16.963 11.1645 17.3442ZM47.8062 17.7983C47.3297 18.0588 47.1304 18.3946 47.1304 18.9369C47.1304 20.0646 48.6068 20.6285 49.3864 19.7985C50.3881 18.7323 49.0938 17.094 47.8062 17.7983ZM42.8405 18.1223C42.792 18.2488 42.8252 18.4882 42.9141 18.6544C43.1452 19.0863 43.1374 28.766 42.9057 28.9977C42.8121 29.0913 42.7762 29.2737 42.8259 29.4032C42.9587 29.7493 45.5957 29.7493 45.7284 29.4032C45.7781 29.2737 45.7422 29.0913 45.6487 28.9977C45.5286 28.8776 45.4778 27.3005 45.4763 23.6392C45.4749 20.685 45.4135 18.3553 45.3336 18.2288C45.1238 17.8972 42.9624 17.8049 42.8405 18.1223ZM101.793 18.0731C101.607 18.1911 101.6 18.2695 101.755 18.5192C102.011 18.9313 102.027 28.7435 101.773 28.9977C101.679 29.0913 101.643 29.2737 101.693 29.4032C101.765 29.5924 102.042 29.6381 103.102 29.6362C104.681 29.6334 104.944 29.5247 104.591 29.0207C104.375 28.7131 104.346 28.036 104.346 23.4444V18.218L103.96 18.0716C103.469 17.8848 102.087 17.8857 101.793 18.0731ZM111.716 18.0648C111.534 18.1799 111.54 18.2564 111.753 18.5828C111.975 18.9206 112.004 19.5372 112.004 23.8182C112.004 28.064 111.974 28.7143 111.759 29.0207C111.406 29.5247 111.669 29.6334 113.248 29.6362C114.308 29.6381 114.584 29.5924 114.657 29.4032C114.707 29.2737 114.671 29.0913 114.577 28.9977C114.462 28.8828 114.407 27.8962 114.407 25.9628C114.407 22.7173 114.437 22.6159 115.501 22.2092C116.212 21.9377 116.836 22.0621 117.206 22.5488C117.465 22.8906 117.497 28.7412 117.24 28.9977C117.147 29.0913 117.112 29.2763 117.163 29.4089C117.24 29.6106 117.482 29.6429 118.647 29.6067C120.036 29.5634 120.038 29.5628 119.983 29.188C119.953 28.9815 119.886 27.3813 119.833 25.6319C119.725 22.0188 119.688 21.9014 118.453 21.2558C117.322 20.665 115.906 20.9543 114.873 21.987L114.407 22.4534V20.4231C114.407 18.4952 114.39 18.3809 114.073 18.159C113.705 17.9007 112.078 17.8358 111.716 18.0648ZM5.70936 18.4228C5.14051 19.0285 5.30254 19.9451 6.03298 20.2522C6.57164 20.4788 7.25987 20.2988 7.48843 19.8715C8.12906 18.6744 6.6242 17.4491 5.70936 18.4228ZM26.0014 18.5051C24.5648 19.0014 23.459 20.04 22.8727 21.4432C22.2228 22.9988 22.3229 25.2633 23.1136 26.8916C24.3923 29.5251 28.0649 30.5503 30.7423 29.0211C31.6233 28.5179 32.4137 27.4469 32.4137 26.7558C32.4137 26.196 32.2124 26.2248 31.7332 26.853C30.8558 28.0036 28.8872 28.4724 27.5273 27.8548C26.7195 27.4878 25.7423 26.3504 25.3372 25.3056C24.8921 24.158 24.7781 21.891 25.1086 20.7614C25.5492 19.2557 26.6603 18.3709 27.8342 18.5912C28.5056 18.7172 29.0061 19.339 29.408 20.5464C29.7936 21.7053 30.2426 22.13 31.0824 22.13C31.8469 22.13 32.2636 21.7191 32.2629 20.9661C32.2618 19.908 31.2784 18.8472 29.9187 18.4381C28.9268 18.1396 26.962 18.1732 26.0014 18.5051ZM72.7649 18.4704C72.7128 18.5227 72.7691 18.7067 72.89 18.8793C73.072 19.1391 73.11 20.0209 73.11 23.9912C73.11 28.3072 73.0842 28.8174 72.8532 29.0727C72.4568 29.5107 72.8164 29.6335 74.5037 29.6362C76.1119 29.6387 76.3527 29.5051 75.9015 28.8612C75.7096 28.5872 75.6629 28.0862 75.6629 26.3013V24.0822H77.9906H80.3182V26.3915C80.3182 28.261 80.2753 28.7363 80.093 28.8876C79.8001 29.1308 79.8057 29.4325 80.1053 29.5473C80.2359 29.5975 80.9814 29.6385 81.7618 29.6385C82.9 29.6385 83.1985 29.5928 83.2695 29.4077C83.3182 29.2806 83.2485 29.0557 83.1145 28.9078C82.9012 28.6719 82.8711 28.0658 82.8711 23.9864C82.8711 20.1283 82.9088 19.2844 83.0916 19.0426C83.5505 18.4357 83.4155 18.3757 81.5947 18.3757C80.228 18.3757 79.8677 18.4188 79.8677 18.5826C79.8677 18.6963 79.9691 18.8735 80.093 18.9764C80.2747 19.1271 80.3182 19.5948 80.3182 21.3974V23.6317H77.9906H75.6629L75.6638 21.5668C75.6646 20.0288 75.7219 19.3922 75.8891 19.0719C76.0125 18.8352 76.1134 18.5819 76.1134 18.5087C76.1134 18.3592 72.9127 18.3227 72.7649 18.4704ZM13.2089 18.9388C12.3899 19.6188 12.879 20.9786 13.9426 20.9786C14.5322 20.9786 15.144 20.3719 15.144 19.7871C15.144 18.907 13.9027 18.3628 13.2089 18.9388ZM108.081 19.6757C107.654 20.5276 107.202 20.8823 106.223 21.1319C105.326 21.3608 105.144 21.6794 105.91 21.6794H106.448V25.053V28.4266L106.912 28.9554C107.52 29.6475 108.322 29.8735 109.32 29.6341C110.091 29.4491 110.953 28.7854 110.953 28.3769C110.953 28.0727 110.931 28.0746 110.228 28.4413C109.767 28.6818 109.56 28.7142 109.247 28.5953L108.851 28.4446V25.0688V21.6931L109.864 21.6488C110.646 21.6146 110.878 21.5527 110.878 21.3791C110.878 21.2056 110.646 21.1436 109.871 21.1095L108.864 21.0654L108.82 20.0704C108.795 19.5045 108.703 19.0513 108.607 19.0196C108.514 18.989 108.278 19.2842 108.081 19.6757ZM1.16503 19.6194C0.841865 19.8675 0.577414 20.3898 0.577414 20.7801C0.577414 21.275 1.36852 21.9798 1.9243 21.9798C3.02595 21.9798 3.59255 20.4129 2.73462 19.7382C2.29717 19.394 1.53385 19.3363 1.16503 19.6194ZM9.91805 20.0576C9.66291 20.3127 9.6946 21.014 9.97376 21.2933C10.475 21.7945 11.3897 21.3884 11.3897 20.6647C11.3897 20.0113 10.3806 19.5951 9.91805 20.0576ZM8.04076 20.2949C7.70859 20.6619 7.71639 21.1198 8.06029 21.4309C8.46995 21.8017 9.08685 21.7457 9.37098 21.312C9.9143 20.4827 8.70662 19.5592 8.04076 20.2949ZM3.9495 20.5464C3.31233 21.1834 3.52888 22.0965 4.39536 22.4259C5.25389 22.7524 6.15552 21.8508 5.82904 20.9923C5.49957 20.1258 4.58653 19.9092 3.9495 20.5464ZM11.6383 21.0531C10.9596 21.8029 11.8357 22.7647 12.7512 22.2749C13.0841 22.0966 13.1548 21.2521 12.8614 20.9586C12.5921 20.6894 11.9204 20.7412 11.6383 21.0531ZM55.6324 21.1496C55.3116 21.2641 54.7878 21.6126 54.4685 21.9244L53.8881 22.4913V22.0209C53.8881 21.2672 53.5725 21.0788 52.3095 21.0788C51.7007 21.0788 51.161 21.1462 51.1101 21.2286C51.0592 21.3111 51.1227 21.5288 51.2514 21.7126C51.607 22.2204 51.5974 28.5107 51.2402 29.0207C50.8873 29.5247 51.1502 29.6334 52.729 29.6362C53.7893 29.6381 54.0655 29.5924 54.138 29.4032C54.1877 29.2737 54.1518 29.0913 54.0583 28.9977C53.8297 28.7692 53.8234 23.2824 54.0512 22.8568C54.1409 22.6893 54.5151 22.419 54.883 22.2564C55.4479 22.0065 55.633 21.9871 56.0727 22.1324C56.3592 22.2268 56.6606 22.4295 56.7426 22.5826C56.9578 22.9847 56.9387 28.7804 56.7214 28.9977C56.6278 29.0913 56.592 29.2737 56.6417 29.4032C56.7142 29.5924 56.9904 29.6381 58.0507 29.6362C59.6295 29.6334 59.8924 29.5247 59.5395 29.0207C59.3327 28.7255 59.2943 28.2045 59.2943 25.6932C59.2943 23.4286 59.2438 22.6186 59.0833 22.3102C58.4665 21.1249 57.0443 20.6466 55.6324 21.1496ZM62.856 21.0926C61.1152 21.5024 60.0984 22.9341 60.9462 23.7818C61.3267 24.1624 62.0607 24.169 62.4345 23.7952C62.5922 23.6375 62.8011 23.1245 62.8984 22.6555C63.1028 21.6713 63.469 21.2289 64.0795 21.2289C65.0503 21.2289 65.5991 22.1552 65.6006 23.7971L65.6015 24.6384L64.4249 24.7291C61.8005 24.9314 60.3455 25.9221 60.3455 27.5064C60.3455 28.2221 60.8242 28.9811 61.539 29.3985C62.5308 29.9776 64.3984 29.7453 65.3331 28.9264C65.5657 28.7225 65.6264 28.7441 65.9704 29.1528C66.4146 29.6809 67.1391 29.8653 67.8267 29.6254C68.3053 29.4587 68.425 29.2225 68.1667 28.9552C68.0908 28.8767 68.0051 27.5286 67.9761 25.9593C67.9183 22.8276 67.845 22.5281 66.9512 21.7761C66.0823 21.045 64.3125 20.7496 62.856 21.0926ZM87.7517 21.0215C86.7548 21.2765 86.3413 21.4923 85.6999 22.0923C84.4656 23.2468 84.0591 25.0611 84.6122 26.9456C84.9315 28.0335 86.0794 29.185 87.1557 29.4972C89.157 30.0776 91.4635 29.3581 92.0365 27.9745C92.1352 27.7363 92.1723 27.4278 92.119 27.2888C92.0355 27.071 91.955 27.0994 91.5387 27.4933C90.847 28.1478 90.5046 28.287 89.5859 28.287C88.99 28.287 88.6375 28.1963 88.2692 27.948C87.7593 27.6044 86.858 26.1153 87.0104 25.8686C87.0562 25.7946 87.4242 25.7341 87.8283 25.7341C89.5013 25.7341 91.2971 25.0538 91.7794 24.2375C92.349 23.2731 91.8925 22.0573 90.7171 21.4084C90.0929 21.0637 88.4329 20.8472 87.7517 21.0215ZM95.2362 21.0628C94.0275 21.3752 93.2029 22.0567 93 22.9108C92.9257 23.2242 92.9907 23.4031 93.2868 23.6992C94.0736 24.486 95.0554 23.9688 95.2511 22.6647C95.3711 21.8638 95.8735 21.2289 96.3871 21.2289C96.9352 21.2289 97.5487 21.6514 97.7218 22.1478C97.8133 22.4105 97.8882 23.0882 97.8882 23.654V24.6829L97.1749 24.6851C96.2237 24.688 94.6726 25.0646 93.9585 25.466C92.5672 26.2479 92.2926 28.0191 93.4019 29.0554C94.3128 29.9063 96.3328 29.9282 97.4562 29.0992L97.9599 28.7277L98.2297 29.0982C98.7313 29.7867 100.133 29.9656 100.602 29.4008C100.745 29.2276 100.734 29.1281 100.546 28.921C100.352 28.7067 100.301 28.1448 100.263 25.7962C100.217 22.9772 100.21 22.9233 99.8128 22.3243C99.2506 21.4755 98.3417 21.0646 96.8726 20.9951C96.2336 20.9649 95.4972 20.9954 95.2362 21.0628ZM33.2398 21.2286C33.1889 21.3111 33.2524 21.5288 33.3811 21.7126C33.5734 21.9873 33.615 22.5672 33.6153 24.9791C33.6155 28.2556 33.7131 28.6713 34.6251 29.2802C35.6994 29.9976 37.2965 29.8016 38.2974 28.8297L38.8282 28.314L39.0765 28.8343C39.3766 29.464 40.1873 29.8569 40.9075 29.7218C41.5909 29.5936 41.8396 29.264 41.5197 28.9106C41.3063 28.6747 41.2738 28.1628 41.2738 25.0389C41.2738 22.4393 41.2237 21.3892 41.0935 21.259C40.9842 21.1496 40.4528 21.0788 39.742 21.0788C38.6827 21.0788 38.5707 21.1067 38.5707 21.3702C38.5707 21.5306 38.6383 21.7035 38.7208 21.7545C38.9245 21.8804 38.9204 27.4636 38.7163 27.8447C38.3169 28.5912 36.8966 28.8276 36.3442 28.2398C36.0304 27.9055 36.0178 27.7702 36.0178 24.7215C36.0178 20.9404 36.0777 21.0788 34.4392 21.0788C33.8304 21.0788 33.2907 21.1462 33.2398 21.2286ZM46.9803 21.3702C46.9803 21.5306 47.0478 21.7035 47.1304 21.7545C47.3507 21.8907 47.3318 28.7764 47.1105 28.9977C47.0169 29.0913 46.981 29.2737 47.0307 29.4032C47.1635 29.7493 49.8005 29.7493 49.9332 29.4032C49.9829 29.2737 49.947 29.0913 49.8535 28.9977C49.7359 28.8801 49.6833 27.6783 49.6833 25.1086C49.6833 20.7979 49.7978 21.0788 48.0414 21.0788C47.0911 21.0788 46.9803 21.1092 46.9803 21.3702ZM6.58425 21.5293C6.41907 21.6945 6.28391 21.9648 6.28391 22.13C6.28391 22.4657 6.78113 23.031 7.07636 23.031C7.81175 23.031 8.20971 21.9739 7.66113 21.4775C7.29622 21.1472 6.94962 21.1639 6.58425 21.5293ZM89.0507 21.3911C89.6845 21.7303 90.0052 23.4214 89.603 24.3041C89.3491 24.8616 88.5571 25.2918 87.6042 25.3902L86.7756 25.4758L86.7765 24.4411C86.7775 23.0661 87.0034 22.3226 87.602 21.724C88.1161 21.2099 88.5329 21.114 89.0507 21.3911ZM0.781196 22.7261C-0.0175634 23.0565 -0.257987 24.099 0.314615 24.7497C0.831954 25.3376 1.47198 25.396 2.05179 24.9081C2.43188 24.5883 2.52964 24.3911 2.52964 23.9448C2.52964 23.051 1.58611 22.3932 0.781196 22.7261ZM3.34882 23.0993C2.29912 24.1489 3.73416 25.7621 4.85789 24.7956C5.43515 24.299 5.44205 23.571 4.87396 23.0823C4.34776 22.6297 3.81225 22.6357 3.34882 23.0993ZM6.24817 23.1921C5.64839 23.5416 5.62016 24.3351 6.19381 24.7181C6.66279 25.0313 7.48528 24.5307 7.48528 23.932C7.48528 23.5962 6.98596 23.0286 6.69688 23.0355C6.59372 23.038 6.39174 23.1085 6.24817 23.1921ZM6.8846 24.9372C5.98462 25.2589 6.19847 26.6351 7.14845 26.6351C7.90906 26.6351 8.23448 25.5099 7.60196 25.0668C7.24546 24.817 7.22924 24.8141 6.8846 24.9372ZM65.311 25.1386C65.5684 25.2763 65.6015 25.4648 65.6015 26.7929V28.2918L65.0925 28.5344C63.7661 29.1671 62.5883 28.1432 62.7347 26.4849C62.8301 25.4041 64.3364 24.6171 65.311 25.1386ZM97.5503 25.0778C97.8729 25.1643 97.8882 25.2383 97.8882 26.7093C97.8882 28.4134 97.8265 28.5432 96.9488 28.6855C95.924 28.8518 95.035 27.9566 95.035 26.7584C95.035 25.5749 96.2861 24.739 97.5503 25.0778ZM4.23618 25.4592C3.54299 25.7949 3.39387 26.7621 3.9495 27.3176C4.54944 27.9177 5.39175 27.766 5.80892 26.9829C6.07893 26.4758 6.02081 26.1987 5.54462 25.7225C5.0851 25.263 4.77169 25.1999 4.23618 25.4592ZM11.6383 25.7084C11.1196 26.2814 11.4893 27.0856 12.2714 27.0856C12.8126 27.0856 13.0416 26.8327 13.0416 26.2349C13.0416 25.4761 12.1509 25.1418 11.6383 25.7084ZM1.13485 26.1864C0.632677 26.5813 0.492417 27.2365 0.787654 27.8073C1.35695 28.9084 3.12672 28.5188 3.16186 27.2847C3.19489 26.1239 2.02206 25.4884 1.13485 26.1864ZM8.03416 26.4592C7.70423 26.8237 7.7197 27.2798 8.07275 27.5992C8.79883 28.2563 9.90378 27.3652 9.37098 26.552C9.07844 26.1054 8.39712 26.0581 8.03416 26.4592ZM9.97376 26.5707C9.6946 26.85 9.66291 27.5513 9.91805 27.8064C10.2115 28.0999 11.056 28.0291 11.2343 27.6962C11.7213 26.7862 10.6842 25.8603 9.97376 26.5707ZM13.5394 26.9363C12.8348 27.2206 12.6632 28.3205 13.2389 28.8615C13.9531 29.5325 15.144 29.0257 15.144 28.0507C15.144 27.5609 14.7298 26.9354 14.4055 26.9354C14.3296 26.9354 14.1775 26.9058 14.0676 26.8698C13.9575 26.8336 13.7199 26.8636 13.5394 26.9363ZM6.03823 27.5616C5.34504 27.8973 5.19592 28.8645 5.75156 29.42C6.35149 30.0201 7.1938 29.8684 7.61097 29.0853C7.88098 28.5781 7.82286 28.3011 7.34667 27.8249C6.88715 27.3654 6.57374 27.3023 6.03823 27.5616ZM10.8574 28.6556C10.4069 29.106 10.387 29.619 10.8 30.1438C11.5049 31.04 13.0413 30.3745 12.8276 29.2655C12.6434 28.3095 11.5437 27.9692 10.8574 28.6556ZM8.33149 28.7484C8.0289 28.9863 7.93579 29.1929 7.93579 29.6262C7.93579 30.3442 8.35207 30.7498 9.08896 30.7498C10.111 30.7498 10.5626 29.5485 9.81969 28.8058C9.36933 28.3553 8.85634 28.3355 8.33149 28.7484ZM2.96859 29.1764C2.11652 30.0285 2.62124 31.3204 3.80609 31.3204C4.99094 31.3204 5.49566 30.0285 4.64359 29.1764C4.074 28.6068 3.53819 28.6068 2.96859 29.1764ZM15.5945 28.8439C14.4805 29.2536 14.4804 30.8795 15.5942 31.2677C16.6714 31.6433 17.5889 30.5556 17.1531 29.42C16.9774 28.9624 16.1272 28.6481 15.5945 28.8439ZM5.75156 31.0584C4.94168 31.8681 5.51293 33.2426 6.65934 33.2426C7.39172 33.2426 7.93579 32.6985 7.93579 31.9662C7.93579 31.2338 7.39172 30.6897 6.65934 30.6897C6.28707 30.6897 6.00595 30.8038 5.75156 31.0584ZM12.2792 31.1286C11.7348 31.673 11.7195 32.175 12.229 32.7805C12.9921 33.6874 14.3931 33.1973 14.3931 32.0235C14.3931 30.7845 13.1497 30.2581 12.2792 31.1286ZM9.05532 31.6591C8.26512 32.4491 8.77105 33.8433 9.84792 33.8433C10.5196 33.8433 10.7716 33.7117 11.0199 33.2318C11.3457 32.6017 11.2899 32.2186 10.8006 31.7293C10.2405 31.1692 9.57191 31.1423 9.05532 31.6591Z" clip-rule="evenodd" fill-rule="evenodd"></path>
</svg>
