<svg xmlns="http://www.w3.org/2000/svg" fill="none" viewBox="0 0 120 48" height="48" width="120">
<mask height="17" width="120" y="16" x="0" maskUnits="userSpaceOnUse" style="mask-type:luminance" id="mask0_1963_309">
<path fill="white" d="M120 16H0V32.5H120V16Z"></path>
</mask>
<g mask="url(#mask0_1963_309)">
<mask height="17" width="120" y="16" x="0" maskUnits="userSpaceOnUse" style="mask-type:luminance" id="mask1_1963_309">
<path fill="white" d="M0 16H120V32.4673H0V16Z"></path>
</mask>
<g mask="url(#mask1_1963_309)">
<path fill-opacity="0.65" fill="#F2F7F7" d="M11.8926 16.6738H7.91821V20.6185L11.8926 24.5629L7.91821 28.5229V32.467H11.8926L15.852 28.5226V20.6185L11.8926 16.6738Z"></path>
<path fill-opacity="0.65" fill="#F2F7F7" d="M5.9463 18.6385L3.9591 16.6738H0V20.6185L1.9719 22.5982L3.9591 24.5632L7.9185 20.6182L5.9463 18.6385Z"></path>
<path fill-opacity="0.65" fill="#F2F7F7" d="M1.9719 26.5432L0 28.5229V32.4676H3.9591L5.9463 30.4876L7.9185 28.5229L3.9591 24.5629L1.9719 26.5432ZM108.431 16H105.992V18.4279H108.431V16ZM26.8416 21.5029C27.9279 21.5029 28.8618 22.1485 29.1288 23.2117H31.5492C31.2822 20.9521 29.262 19.4521 26.8608 19.4521C24.078 19.4521 21.7719 21.5221 21.7719 24.541C21.7719 27.6931 24.0018 29.725 26.8227 29.725C29.1288 29.725 31.1871 28.3198 31.5492 25.9462H29.1288C28.8237 27.0664 27.909 27.6742 26.8416 27.6742C25.374 27.6742 24.2877 26.3641 24.2877 24.541C24.2877 22.756 25.3359 21.5029 26.8416 21.5029ZM38.8863 25.1107C38.8863 26.8387 37.9143 27.6364 36.8661 27.6364C35.7033 27.6364 34.941 26.8576 34.941 25.4524V19.6801H32.4822V25.8511C32.4822 28.4146 33.969 29.725 36.0654 29.725C37.3044 29.725 38.3145 29.269 38.9433 28.3579V29.5159H41.3259V19.6801H38.8863V25.1107ZM103.702 26.9518H101.02V29.5159H103.702V26.9518ZM62.6823 19.4521C59.8236 19.4521 57.4794 21.4459 57.4794 24.541C57.4794 27.7312 59.7855 29.725 62.6823 29.725C65.5413 29.725 67.8663 27.6931 67.8663 24.541C67.8663 21.4078 65.5602 19.4521 62.6823 19.4521ZM62.6823 27.6742C61.0815 27.6742 59.9949 26.4022 59.9949 24.541C59.9949 22.7371 61.0623 21.5029 62.6823 21.5029C64.2642 21.5029 65.3505 22.756 65.3505 24.541C65.3505 26.4211 64.2642 27.6742 62.6823 27.6742ZM80.4828 19.4521C79.1106 19.4521 77.9289 20.0221 77.262 21.0853C76.6329 19.9459 75.4704 19.4521 74.3076 19.4521C73.0116 19.4521 72.0015 19.9459 71.4108 20.8381V19.6801H69.0285V29.5159H71.4681V24.0475C71.4681 22.3765 72.4401 21.541 73.4883 21.541C74.5365 21.541 75.3369 22.2436 75.3369 23.6677V29.5159H77.7765V24.0475C77.7765 22.3954 78.7485 21.541 79.7967 21.541C80.8449 21.541 81.6453 22.2436 81.6453 23.6677V29.5159H84.1041V23.269C84.1041 20.497 82.4079 19.4521 80.4828 19.4521ZM90.183 19.4521C87.5529 19.4521 85.1322 21.4081 85.1322 24.5221C85.1322 27.7882 87.4767 29.725 90.2784 29.725C92.3175 29.725 94.4331 28.7944 95.043 26.6299H92.6415C92.184 27.5032 91.2693 27.8071 90.3543 27.8071C88.944 27.8071 87.8004 26.8387 87.6099 25.2817H95.1381V24.7498C95.1381 21.256 92.8512 19.4521 90.183 19.4521ZM87.5907 23.5537C87.7623 22.1677 88.8489 21.3511 90.1446 21.3511C91.5171 21.3511 92.5083 22.2244 92.6226 23.5537H87.5907ZM102.152 21.9586V19.6612C101.98 19.6231 101.732 19.6042 101.465 19.6042C100.608 19.6042 100.055 19.7938 99.4641 20.2495C99.1401 20.5156 98.8923 20.8384 98.6826 21.1801V19.6801H96.3003V29.5159H98.7399V24.2182C98.7399 22.3006 100.112 21.9208 101.18 21.9208C101.446 21.9208 101.675 21.9208 102.152 21.9586ZM108.431 19.6801H105.992V29.5162H108.431V19.6801ZM114.816 19.4521C111.957 19.4521 109.613 21.4459 109.613 24.541C109.613 27.7312 111.919 29.725 114.816 29.725C117.675 29.725 120 27.6931 120 24.541C120 21.4078 117.694 19.4521 114.816 19.4521ZM114.816 27.6742C113.215 27.6742 112.129 26.4022 112.129 24.541C112.129 22.7371 113.196 21.5029 114.816 21.5029C116.398 21.5029 117.484 22.756 117.484 24.541C117.484 26.4211 116.398 27.6742 114.816 27.6742ZM55.002 26.2891V21.6445H57.2889V19.6798H54.9996V16.6738H52.5801V18.4822L53.7822 19.6798H50.9232V21.6445H52.5813V26.5636C52.5813 27.2686 52.7919 30.4555 57.3192 29.6056V27.5626C56.0361 27.9445 55.002 27.556 55.002 26.2891ZM47.514 23.5912L46.2174 23.3104C45.8415 23.2354 45.5346 23.1232 45.2967 22.9735C45.0585 22.8235 44.9397 22.6114 44.9397 22.3369C44.9397 21.874 45.4278 21.3691 46.3866 21.3691C46.9716 21.3691 48.0306 21.5977 48.1686 22.624H50.5185C50.4144 22.0699 49.9344 19.435 46.4241 19.435C45.2592 19.435 44.3385 19.7251 43.662 20.3056C42.9855 20.8858 42.6471 21.6196 42.6471 22.5052C42.6471 23.1043 42.7974 23.5942 43.0983 23.9749C43.3989 24.3559 43.7871 24.6553 44.2632 24.8734C44.7561 25.0974 45.2731 25.2639 45.804 25.3696L47.1756 25.6504C47.5764 25.738 47.8983 25.8463 48.087 26.0344C48.5949 26.5405 48.3345 27.733 46.6752 27.733C44.9136 27.733 44.6598 26.4604 44.6337 26.0941H42.2661C42.2661 26.8351 42.8421 29.7316 46.7811 29.7316C47.6079 29.7316 48.3126 29.5912 48.8949 29.3104C49.4775 29.0296 49.9221 28.6489 50.229 28.1683C50.5359 27.6883 50.6895 27.1543 50.6895 26.5678C50.6895 24.8812 49.6344 24.0193 47.514 23.5912Z"></path>
</g>
</g>
</svg>
