<svg xmlns="http://www.w3.org/2000/svg" fill="none" viewBox="0 0 120 48" height="48" width="120">
<g clip-path="url(#clip0_1963_263)">
<mask height="20" width="100" y="14" x="10" maskUnits="userSpaceOnUse" style="mask-type:luminance" id="mask0_1963_263">
<path fill="white" d="M110 14H10V33.7466H110V14Z"></path>
</mask>
<g mask="url(#mask0_1963_263)">
<path fill-opacity="0.65" fill="#F2F7F7" d="M101.962 22.766H107.652C107.492 21.1892 106.578 20.138 104.864 20.138C103.264 20.138 102.258 21.1663 101.962 22.766ZM104.864 29.5529C101.39 29.5529 99.6075 26.9935 99.6075 23.8628C99.6075 20.7322 101.664 18.1728 104.909 18.1728C108.154 18.1728 109.96 20.6865 109.96 23.5658C109.96 23.9085 109.937 24.3884 109.891 24.594H101.893C102.008 26.3536 102.99 27.5876 104.749 27.5876C106.189 27.5876 107.058 26.9249 107.423 25.6453H109.754C109.228 27.9532 107.674 29.5529 104.864 29.5529ZM87.2224 23.7714C87.2224 20.4808 89.2333 18.1728 92.204 18.1728C94.2375 18.1728 95.5633 19.3611 96.0658 20.9607C96.0892 21.0292 96.1575 21.0292 96.1575 20.9607V18.3556H98.305V27.999C98.305 31.4267 96.4092 33.7346 92.6383 33.7346C89.7132 33.7346 87.8623 32.2493 87.5881 30.0556H89.9189C90.1017 30.9697 90.7873 31.7695 92.6839 31.7695C95.0833 31.7695 96.1117 30.2612 96.1575 28.0675L96.18 26.6735C96.18 26.605 96.1117 26.605 96.0892 26.6735C95.5633 28.3417 94.0775 29.37 92.204 29.37C89.2333 29.37 87.2224 27.062 87.2224 23.7714ZM95.8833 23.7714C95.8833 21.6691 94.6267 20.138 92.6839 20.138C90.513 20.138 89.5076 21.6691 89.5076 23.7714C89.5076 25.8738 90.513 27.4049 92.6839 27.4049C94.6267 27.4049 95.8833 25.8509 95.8833 23.7714ZM80.8468 18.3556H82.8807L82.8578 20.9607C82.8578 21.0292 82.9263 21.0292 82.9492 20.9607C83.5205 19.3154 84.2518 18.1728 86.8111 18.1728V20.3437C83.909 20.2523 83.0405 21.8747 83.0405 24.1599V29.3929H80.8468V18.3556ZM71.0207 23.8628C71.0207 25.9651 72.049 27.5876 74.0828 27.5876C76.1166 27.5876 77.1448 25.9651 77.1448 23.8628C77.1448 21.7605 76.1166 20.138 74.0828 20.138C72.049 20.138 71.0207 21.7605 71.0207 23.8628ZM79.4758 23.8628C79.4758 27.0164 77.442 29.5529 74.0828 29.5529C70.7237 29.5529 68.6898 27.0164 68.6898 23.8628C68.6898 20.7093 70.7237 18.1728 74.0828 18.1728C77.442 18.1728 79.4758 20.7093 79.4758 23.8628ZM63.0684 29.3929V20.2523H61.3774V18.3556H63.1142V18.0814C63.1142 15.4306 64.5766 13.8539 68.3243 14.0367V16.1162C65.9933 15.8877 65.2622 16.7103 65.2622 18.3556H68.3243V20.2523H65.2622V29.3929H63.0684ZM52.7638 22.766H58.4538C58.2938 21.1892 57.3798 20.138 55.666 20.138C54.0663 20.138 53.0609 21.1663 52.7638 22.766ZM55.666 29.5529C52.1925 29.5529 50.4101 26.9935 50.4101 23.8628C50.4101 20.7322 52.4668 18.1728 55.7116 18.1728C58.9566 18.1728 60.7618 20.6865 60.7618 23.5658C60.7618 23.9085 60.7389 24.3884 60.6933 24.594H52.6953C52.8095 26.3536 53.7921 27.5876 55.5518 27.5876C56.9913 27.5876 57.8597 26.9249 58.2253 25.6453H60.5562C60.0306 27.9532 58.4767 29.5529 55.666 29.5529ZM40.2869 21.7833H43.4404C45.6798 21.7833 46.9367 20.8236 46.9367 18.9726C46.9367 17.3044 46.0226 16.3447 43.6003 16.3447H40.2869V21.7833ZM37.9332 29.3929V14.3338H43.5317C47.5766 14.3338 49.2904 16.0705 49.2904 18.7441C49.2904 20.7322 48.0336 22.6289 44.9258 22.766C44.8573 22.766 44.8573 22.8574 44.9258 22.8574C48.1478 23.223 49.8388 25.988 49.8388 29.3929H47.3708C47.3708 26.3765 46.0455 23.7943 42.8234 23.7943H40.2869V29.3929H37.9332Z"></path>
<mask height="16" width="21" y="14" x="10" maskUnits="userSpaceOnUse" style="mask-type:luminance" id="mask1_1963_263">
<path fill="white" d="M30.3857 14H10V29.3643H30.3857V14Z"></path>
</mask>
<g mask="url(#mask1_1963_263)">
<path fill-opacity="0.65" fill="#F2F7F7" d="M13.1286 14.1435C13.0713 14.1192 13.0854 14.0342 13.1475 14.0308C14.6568 13.9423 16.1768 14.0553 17.0766 14.253C18.6742 14.6046 20.1126 15.2338 21.1038 16.7712C21.5295 17.4313 21.8389 18.1592 21.9367 18.9071C21.9431 18.9553 21.9061 18.9982 21.8576 18.9982H16.4585C16.4162 18.9982 16.3818 18.9655 16.3789 18.9233C16.264 17.1747 15.3258 15.0699 13.1286 14.1435Z"></path>
<path fill-opacity="0.65" fill="#F2F7F7" d="M27.2447 29.2209C27.302 29.2451 27.2878 29.3302 27.2257 29.3336C25.7165 29.4221 24.1964 29.3091 23.2966 29.1114C21.6992 28.7599 20.2607 28.1306 19.2695 26.5932C18.8438 25.933 18.5344 25.2051 18.4366 24.4573C18.4302 24.409 18.4672 24.3662 18.5157 24.3662H23.915C23.9573 24.3662 23.9917 24.399 23.9947 24.441C24.1095 26.1897 25.0477 28.2945 27.2447 29.2209Z"></path>
<path fill-opacity="0.65" fill="#F2F7F7" d="M16.027 19.5121C16.0611 19.4642 16.0118 19.4015 15.9575 19.4236C14.6574 19.9567 8.99798 22.6643 10.1552 26.3429C11.1728 29.5468 16.5801 29.4125 17.8274 29.3373C17.8895 29.3335 17.9034 29.2488 17.846 29.2248C15.6142 28.2859 14.68 26.1323 14.5883 24.3797C14.522 23.1102 14.8495 21.168 16.027 19.5121Z"></path>
<path fill-opacity="0.65" fill="#F2F7F7" d="M24.3585 23.8521C24.3243 23.9001 24.3737 23.9627 24.4281 23.9406C25.7282 23.4078 31.3878 20.6999 30.2305 17.0213C29.2129 13.8174 23.8054 13.9518 22.5582 14.0267C22.4963 14.0304 22.4821 14.1149 22.5394 14.1391C24.7716 15.0781 25.7058 17.2316 25.7974 18.9845C25.8638 20.254 25.536 22.1962 24.3585 23.8521Z"></path>
</g>
</g>
</g>
<defs>
<clipPath id="clip0_1963_263">
<rect transform="translate(10 14)" fill="white" height="20" width="100"></rect>
</clipPath>
</defs>
</svg>
