<svg xmlns="http://www.w3.org/2000/svg" fill="none" viewBox="0 0 120 48" height="48" width="120">
<mask height="22" width="110" y="13" x="5" maskUnits="userSpaceOnUse" style="mask-type:luminance" id="mask0_1963_308">
<path fill="white" d="M115 13H5V34.9188H115V13Z"></path>
</mask>
<g mask="url(#mask0_1963_308)">
<path fill-opacity="0.65" fill="#F2F7F7" d="M16.4137 30.3042C20.5214 30.3042 23.6962 27.2053 23.6962 23.3826C23.6962 19.8013 20.7135 17.6145 18.738 17.6145C15.987 17.6145 13.7819 19.5424 13.4678 22.4043C13.4096 22.9343 12.9891 23.3788 12.4554 23.3749C11.5683 23.3686 10.2786 23.361 9.46213 23.3638C9.11065 23.365 8.82003 23.0802 8.83741 22.7294C8.96062 20.2474 9.79168 17.9265 11.3765 16.1438C13.1374 14.1628 15.7019 13 18.738 13C23.839 13 28.6545 17.6285 28.6545 23.3826C28.6545 29.7538 23.3683 34.9188 16.5223 34.9188C11.64 34.9188 6.72276 31.7326 5.00598 27.2781C4.99961 27.2616 4.99859 27.2443 5.00169 27.2264C5.02453 27.0946 5.06993 26.9742 5.11464 26.8557C5.17965 26.6833 5.24319 26.5148 5.23391 26.3205L5.20424 25.7001C5.18962 25.394 5.3628 25.1093 5.64294 24.9791L5.89111 24.8637C6.17409 24.7321 6.37525 24.4731 6.43092 24.1685C6.5141 23.7134 6.91415 23.3826 7.38109 23.3826C8.11021 23.3826 8.7443 23.8668 8.9825 24.5552C10.1289 27.8688 11.9513 30.3042 16.4137 30.3042Z"></path>
<path fill-opacity="0.65" fill="#F2F7F7" d="M107.218 20.6561C106.307 20.6561 106.028 20.1143 106.028 19.5026C106.028 18.8561 106.255 18.3492 107.218 18.3492C108.179 18.3492 108.406 18.8561 108.406 19.5026C108.406 20.1143 108.162 20.6561 107.218 20.6561Z"></path>
<path fill-opacity="0.65" fill="#F2F7F7" d="M90.6126 28.1579V23.6666L89.3332 23.6603V23.1374C89.3332 22.568 89.7966 22.1072 90.3667 22.11L90.6126 22.1112V20.2063L92.6592 19.6296V22.1112H94.5134V22.6391C94.5134 23.2065 94.0531 23.6666 93.485 23.6666H92.6592V27.8958C92.6592 28.5468 93.0283 28.7754 93.5042 28.854C94.0647 28.9466 94.5309 29.3519 94.5309 29.9194V30.6919C92.593 30.6919 90.6126 30.6065 90.6126 28.1579Z"></path>
<path fill-opacity="0.65" fill="#F2F7F7" d="M50.2363 21.9178C48.1896 21.8653 45.6706 23.1585 45.6706 26.3916C45.6706 29.5722 48.1896 30.8305 50.2363 30.778C52.3355 30.8305 54.837 29.5722 54.837 26.3916C54.837 23.1585 52.3355 21.8653 50.2363 21.9178ZM50.2514 29.1906C48.7645 29.1906 47.7096 28.1083 47.7096 26.3259C47.7096 24.6307 48.7651 23.5139 50.2522 23.5139C51.739 23.5139 52.7828 24.6284 52.7828 26.3235C52.7828 28.106 51.7383 29.1906 50.2514 29.1906Z" clip-rule="evenodd" fill-rule="evenodd"></path>
<path fill-opacity="0.65" fill="#F2F7F7" d="M60.2133 21.9368C61.9975 21.9368 63.8519 22.4261 63.8519 25.9213V30.6048H62.7111C62.1432 30.6048 61.6826 30.1448 61.6826 29.5774V25.7465C61.6826 24.0863 61.0705 23.4572 60.0034 23.4572C59.4086 23.4572 58.639 23.9115 58.2715 24.2785V29.5774C58.2715 30.1448 57.8112 30.6048 57.2431 30.6048H56.2073V22.1464H57.3615C57.7713 22.1464 58.1269 22.429 58.2191 22.828C58.7439 22.2513 59.4262 21.9368 60.2133 21.9368Z"></path>
<path fill-opacity="0.65" fill="#F2F7F7" d="M66.191 22.1318C66.6258 22.1318 67.0135 22.4049 67.1596 22.8138L69.0327 28.0562L70.9055 22.8139C71.0516 22.4049 71.4394 22.1318 71.874 22.1318H73.3533L70.3029 29.9365C70.1486 30.3307 69.7684 30.5902 69.3447 30.5902H68.0355L64.7118 22.1318H66.191Z"></path>
<path fill-opacity="0.65" fill="#F2F7F7" d="M81.4408 30.1791C80.7936 30.4413 79.4806 30.7905 78.1162 30.7905C75.7196 30.7905 73.884 29.41 73.884 26.2992C73.884 23.5031 75.6633 22.0081 77.8327 22.0081C80.5097 22.0081 81.652 23.8033 81.5327 26.2473C81.508 26.7522 81.0682 27.1205 80.5622 27.1205H75.9472C76.052 28.4837 77.049 29.2001 78.3609 29.2001C78.8762 29.2001 79.4179 29.174 80.0669 29.0529C80.7552 28.9244 81.4408 29.4137 81.4408 30.1133V30.1791ZM79.6801 25.6875C79.8206 24.3499 78.917 23.6159 77.8327 23.6159C76.748 23.6159 76.0167 24.4292 75.9472 25.6875H79.6801Z" clip-rule="evenodd" fill-rule="evenodd"></path>
<path fill-opacity="0.65" fill="#F2F7F7" d="M84.2586 22.1491C84.6495 22.1491 84.9899 22.4162 85.0822 22.7957C85.7819 22.2715 86.6567 21.9395 87.2686 21.9395C87.3214 21.9395 87.6536 21.9395 88.1785 22.0093V22.9163C88.1785 23.4037 87.7568 23.7743 87.2686 23.7743C86.7092 23.7743 85.8867 23.9842 85.2395 24.3511V30.6075H83.1579V22.1491H84.2586Z"></path>
<path fill-opacity="0.65" fill="#F2F7F7" d="M108.267 29.5548V22.1239H107.231C106.663 22.1239 106.203 22.5839 106.203 23.1513V30.5822H107.239C107.806 30.5822 108.267 30.1222 108.267 29.5548Z"></path>
<path fill-opacity="0.65" fill="#F2F7F7" d="M111.081 28.176V23.6847H109.7V23.1568C109.7 22.5892 110.16 22.1293 110.728 22.1293H111.081V20.2244L113.128 19.6477V22.1293H114.983V22.6572C114.983 23.2247 114.522 23.6847 113.954 23.6847H113.128V27.9139C113.128 28.5649 113.498 28.7935 113.973 28.8722C114.533 28.9648 115 29.37 115 29.9374V30.71C113.062 30.71 111.081 30.6246 111.081 28.176Z"></path>
<path fill-opacity="0.65" fill="#F2F7F7" d="M35.4422 24.6443C35.4554 20.6895 38.4406 18.4796 41.3053 18.4796C42.8965 18.4796 44.3555 18.8221 45.5554 19.6783L45.0699 20.3437C44.7452 20.7887 44.1295 20.9656 43.6168 20.7631C42.893 20.4772 42.2115 20.4168 41.7035 20.4168C39.3596 20.4168 37.5918 21.9214 37.5792 24.6441C37.5918 27.3669 39.3596 28.8932 41.7035 28.8932C42.2115 28.8932 42.893 28.8328 43.6168 28.5469C44.1295 28.3444 44.7452 28.4998 45.0699 28.9449L45.5554 29.6103C44.3555 30.4664 42.8965 30.809 41.3053 30.809C38.4406 30.809 35.4554 28.5991 35.4422 24.6443Z"></path>
<path fill-opacity="0.65" fill="#F2F7F7" d="M97.0691 18.5414C97.6374 18.5414 98.0976 19.0014 98.0976 19.5688V24.2793L102.307 18.9947C102.501 18.7319 102.808 18.5768 103.136 18.5768H105.006L100.245 24.5808L105.006 30.5824H103.136C102.808 30.5824 102.501 30.4273 102.307 30.1645L98.0976 24.8813V29.5549C98.0976 30.1223 97.6374 30.5823 97.0691 30.5823H95.9805V18.5414H97.0691Z"></path>
</g>
</svg>
