<svg xmlns="http://www.w3.org/2000/svg" fill="none" viewBox="0 0 120 48" height="48" width="120">
<g clip-path="url(#clip0_1963_247)">
<path fill-opacity="0.65" fill="#F2F7F7" d="M50.7823 17.6323C50.4917 17.6329 50.2013 17.6186 49.9122 17.5892C47.5545 17.3608 45.9275 16.2963 45.7752 14.9085C45.6777 14.3036 45.7262 13.6844 45.9168 13.1015C46.1073 12.5187 46.4345 11.9889 46.8715 11.5555C49.1945 9.30149 54.3755 9.9652 54.593 10.0169C54.7198 10.0302 54.8405 10.0773 54.9424 10.1532C55.0443 10.2291 55.1235 10.3309 55.1716 10.4479L57.2814 16.5549C57.3392 16.7311 57.3249 16.9227 57.2416 17.0885C57.1582 17.2543 57.0125 17.3811 56.8357 17.4415C56.659 17.502 56.4653 17.4913 56.2965 17.4117C56.1276 17.3321 55.9971 17.19 55.9329 17.016L55.5414 15.9041C54.4756 17.1108 52.5832 17.6323 50.7823 17.6323ZM52.6659 11.3099C51.0346 11.3099 48.9161 11.5598 47.8807 12.6028C47.6004 12.8815 47.391 13.2222 47.27 13.597C47.149 13.9717 47.1197 14.3696 47.1847 14.7577C47.2586 15.4214 48.4897 16.0506 50.0428 16.1885C52.083 16.3911 54.3929 15.7834 54.9019 14.2448L54.941 14.1457L53.9709 11.353C53.6099 11.3099 53.1618 11.3099 52.6659 11.3099Z"></path>
<path fill-opacity="0.65" fill="#F2F7F7" d="M68.6528 24.6918C68.0207 24.6751 67.3976 24.5391 66.817 24.291C66.7157 24.2688 66.6206 24.2251 66.5382 24.1628C66.4557 24.1005 66.388 24.0212 66.3396 23.9303C66.2913 23.8395 66.2635 23.7393 66.2582 23.6367C66.253 23.5341 66.2703 23.4316 66.3091 23.3364C66.3479 23.2411 66.4071 23.1554 66.4828 23.0851C66.5584 23.0149 66.6486 22.9618 66.747 22.9296C66.8455 22.8974 66.9498 22.8868 67.0528 22.8986C67.1558 22.9105 67.2549 22.9444 67.3434 22.998C68.8659 23.6014 69.414 23.1187 69.5967 22.9592C70.9018 21.7956 70.7452 17.8694 70.1318 14.1629C68.9943 15.3171 67.4599 16.0049 65.8338 16.0894C63.6588 16.2403 61.8839 15.4429 61.1879 14.0035C61.0547 13.7421 60.9875 13.4526 60.992 13.1599C60.9966 12.8671 61.0727 12.5798 61.214 12.3226C62.4016 10.0945 68.5309 9.0472 69.749 8.87481C69.9221 8.84861 70.0989 8.88639 70.2457 8.98096C70.3925 9.07554 70.499 9.2203 70.5451 9.38768C70.8757 10.5901 73.6946 21.2439 70.5451 24.041C70.0191 24.4856 69.3436 24.7179 68.6528 24.6918ZM69.3314 10.3445C66.6386 10.8271 63.0584 11.8744 62.4799 12.9648C62.4423 13.0266 62.4224 13.0974 62.4224 13.1695C62.4224 13.2417 62.4423 13.3125 62.4799 13.3742C62.9149 14.2664 64.1895 14.7663 65.7381 14.6672C67.2868 14.5681 69.1878 13.7233 69.7011 12.1115C69.7011 12.0813 69.7011 12.0554 69.7316 12.0296C69.6011 11.4391 69.4619 10.8789 69.3314 10.3445Z"></path>
<path fill-opacity="0.65" fill="#F2F7F7" d="M79.4672 17.5461C79.2784 17.545 79.0976 17.4702 78.964 17.3379C78.8305 17.2056 78.755 17.0264 78.7538 16.8393V11.4348C78.7538 11.2474 78.829 11.0676 78.9628 10.935C79.0966 10.8025 79.278 10.728 79.4672 10.728C79.6565 10.728 79.8379 10.8025 79.9717 10.935C80.1055 11.0676 80.1807 11.2474 80.1807 11.4348V16.8393C80.1807 17.0268 80.1055 17.2066 79.9717 17.3391C79.8379 17.4717 79.6565 17.5461 79.4672 17.5461Z"></path>
<path fill-opacity="0.65" fill="#F2F7F7" d="M79.4673 8.75411H79.4107C79.3173 8.7465 79.2263 8.72073 79.1429 8.67827C79.0596 8.6358 78.9855 8.57749 78.9249 8.50664C78.8643 8.4358 78.8184 8.35382 78.7898 8.26539C78.7612 8.17696 78.7504 8.08382 78.7582 7.99127V7.6508C78.7662 7.55826 78.7925 7.46819 78.8356 7.38573C78.8788 7.30327 78.9379 7.23004 79.0096 7.17021C79.0813 7.11038 79.1642 7.06512 79.2535 7.03703C79.3429 7.00894 79.4369 6.99856 79.5303 7.00648C79.6237 7.01441 79.7146 7.04048 79.7979 7.08321C79.8811 7.12595 79.955 7.1845 80.0154 7.25554C80.0758 7.32657 80.1215 7.4087 80.1498 7.49722C80.1782 7.58575 80.1887 7.67894 80.1807 7.77147L80.1589 8.10764C80.1431 8.28044 80.064 8.44155 79.9366 8.56062C79.8093 8.67969 79.6423 8.74851 79.4673 8.75411Z"></path>
<path fill-opacity="0.65" fill="#F2F7F7" d="M91.7999 17.3176H91.3649C89.1594 17.1754 86.6189 15.9083 86.2491 13.8396C86.1258 13.3342 86.1324 12.8062 86.2685 12.3039C86.4045 11.8017 86.6656 11.3413 87.0278 10.965C89.0376 8.93506 93.8228 9.62463 94.3752 9.71082C94.5621 9.74054 94.7295 9.8426 94.8404 9.99455C94.9514 10.1465 94.9969 10.3359 94.9669 10.5211C94.9369 10.7062 94.8338 10.872 94.6805 10.9819C94.5271 11.0919 94.3359 11.1369 94.149 11.1072C92.8788 10.9089 89.3029 10.6762 88.0588 11.9433C87.8591 12.1613 87.7181 12.4256 87.6489 12.7119C87.5797 12.9981 87.5845 13.2971 87.6629 13.581C87.8717 14.7317 89.577 15.7704 91.4693 15.8911C92.0696 15.9299 94.0794 15.9342 94.5884 14.318C94.6461 14.1391 94.7731 13.9903 94.9416 13.9042C95.1101 13.8181 95.3061 13.8019 95.4867 13.859C95.6673 13.9162 95.8175 14.042 95.9044 14.2089C95.9913 14.3758 96.0077 14.5701 95.95 14.749C95.4149 16.3565 93.8532 17.3176 91.7999 17.3176Z"></path>
<path fill-opacity="0.65" fill="#F2F7F7" d="M64.6767 40.1854C64.4875 40.1854 64.306 40.111 64.1722 39.9784C64.0384 39.8459 63.9633 39.6661 63.9633 39.4786V34.0569C63.9633 33.8694 64.0384 33.6897 64.1722 33.5571C64.306 33.4246 64.4875 33.3501 64.6767 33.3501C64.8659 33.3501 65.0474 33.4246 65.1812 33.5571C65.3149 33.6897 65.3901 33.8694 65.3901 34.0569V39.4614C65.393 39.5558 65.3767 39.6498 65.3421 39.7379C65.3075 39.8259 65.2554 39.9061 65.1888 39.9737C65.1222 40.0413 65.0425 40.0949 64.9545 40.1312C64.8665 40.1676 64.772 40.1861 64.6767 40.1854Z"></path>
<path fill-opacity="0.65" fill="#F2F7F7" d="M64.6767 31.3763C64.4875 31.3763 64.306 31.3018 64.1722 31.1692C64.0384 31.0367 63.9633 30.8569 63.9633 30.6695V29.9928C63.9633 29.8054 64.0384 29.6256 64.1722 29.493C64.306 29.3605 64.4875 29.286 64.6767 29.286C64.8659 29.286 65.0474 29.3605 65.1812 29.493C65.3149 29.6256 65.3901 29.8054 65.3901 29.9928V30.6695C65.3907 30.7624 65.3726 30.8546 65.337 30.9406C65.3013 31.0266 65.2488 31.1048 65.1824 31.1705C65.1161 31.2363 65.0372 31.2883 64.9504 31.3236C64.8636 31.3589 64.7705 31.3768 64.6767 31.3763Z"></path>
<path fill-opacity="0.65" fill="#F2F7F7" d="M72.7419 40.1854C72.5635 40.1862 72.3912 40.1206 72.2592 40.0018C72.1271 39.8829 72.0448 39.7193 72.0285 39.5433C72.0285 39.5433 72.0285 39.3407 72.0285 39.0261V34.0569C72.0285 33.8694 72.1036 33.6897 72.2374 33.5571C72.3712 33.4246 72.5527 33.3501 72.7419 33.3501C72.9311 33.3501 73.1126 33.4246 73.2464 33.5571C73.3802 33.6897 73.4553 33.8694 73.4553 34.0569V35.0783C74.395 33.9147 75.9523 32.8976 78.5146 32.5873C80.5852 32.333 82.2296 32.7683 83.4085 33.8802C85.4183 35.7636 85.2312 38.8882 85.2225 39.0175C85.2182 39.1106 85.1949 39.2018 85.1542 39.2858C85.1134 39.3698 85.056 39.4449 84.9854 39.5064C84.9147 39.5679 84.8323 39.6148 84.743 39.644C84.6537 39.6733 84.5593 39.6845 84.4656 39.6769C84.2785 39.6604 84.1056 39.5715 83.9842 39.4295C83.8629 39.2875 83.8029 39.1038 83.8174 38.9183C83.8174 38.8925 83.961 36.3325 82.4384 34.893C81.5684 34.0957 80.3286 33.794 78.7016 33.9922C74.221 34.5353 73.5554 37.5952 73.4814 38.8623V39.4614C73.4837 39.5553 73.4671 39.6487 73.4326 39.7362C73.3981 39.8236 73.3463 39.9034 73.2802 39.9708C73.2142 40.0382 73.1353 40.0919 73.0481 40.1288C72.9609 40.1656 72.8672 40.1849 72.7724 40.1854H72.7419Z"></path>
<path fill-opacity="0.65" fill="#F2F7F7" d="M99.9913 39.8665L99.043 33.9578L98.0381 25.2606C98.0161 25.0743 97.9204 24.9043 97.7719 24.7879C97.6235 24.6715 97.4344 24.6183 97.2463 24.64C97.0583 24.6617 96.8866 24.7566 96.7692 24.9037C96.6517 25.0508 96.598 25.2381 96.6199 25.4244L97.5509 33.4708C95.5411 33.8285 90.7341 34.8758 89.7206 36.8195C89.5782 37.0763 89.5015 37.3637 89.4969 37.6567C89.4924 37.9497 89.5602 38.2393 89.6945 38.5003C90.3905 39.9484 92.2219 40.7888 94.3535 40.6552C95.8793 40.5823 97.3218 39.9439 98.3948 38.8667L98.5905 40.0993C98.6155 40.2657 98.7 40.4176 98.8285 40.5276C98.957 40.6375 99.1211 40.6981 99.2909 40.6983H99.404C99.4984 40.6833 99.5887 40.6496 99.6697 40.5994C99.7507 40.5491 99.8206 40.4832 99.8754 40.4056C99.9302 40.328 99.9687 40.2403 99.9886 40.1477C100.008 40.0551 100.009 39.9595 99.9913 39.8665ZM98.0294 36.7376C97.4943 38.4184 95.6542 39.1296 94.2447 39.2287C92.7004 39.3321 91.4128 38.7977 90.9691 37.8926C90.9281 37.8281 90.9064 37.7534 90.9064 37.6772C90.9064 37.6009 90.9281 37.5262 90.9691 37.4617C91.5433 36.3799 95.0669 35.3456 97.7553 34.8758L98.0424 36.6902C98.0362 36.7055 98.0318 36.7214 98.0294 36.7376Z"></path>
<path fill-opacity="0.65" fill="#F2F7F7" d="M19.7047 19.2614C19.6474 19.2627 19.5902 19.2554 19.5351 19.2398C19.4433 19.2183 19.3568 19.1786 19.2808 19.1232C19.2049 19.0677 19.141 18.9977 19.0931 18.9172C19.0451 18.8367 19.0141 18.7474 19.0018 18.6547C18.9896 18.562 18.9964 18.4679 19.0217 18.3778C19.0957 18.0805 20.8923 11.0512 24.8901 10.422C26.9477 10.0987 29.1098 11.5296 31.3197 14.6671C31.9287 12.9992 33.1946 10.4823 35.387 10.1203C37.5795 9.75825 40.0417 11.6589 42.7214 15.973C42.8195 16.1307 42.8503 16.3206 42.8071 16.5008C42.7638 16.6811 42.6501 16.8369 42.4909 16.9341C42.3316 17.0312 42.14 17.0617 41.9581 17.0189C41.7761 16.9761 41.6188 16.8634 41.5208 16.7056C38.641 12.0683 36.7356 11.3141 35.6176 11.4951C33.6948 11.814 32.5333 15.1843 32.2462 16.4514C32.2167 16.5874 32.1466 16.7115 32.045 16.8076C31.9434 16.9037 31.8149 16.9673 31.6764 16.9901C31.5379 17.0126 31.3957 16.994 31.2679 16.9364C31.1402 16.8789 31.0325 16.7851 30.9586 16.6669C28.814 13.219 26.7868 11.5382 25.1076 11.8011C22.5584 12.1976 20.8358 16.9254 20.3877 18.6968C20.3575 18.8547 20.2729 18.9973 20.1483 19.1003C20.0237 19.2032 19.8669 19.2602 19.7047 19.2614Z"></path>
<path fill-opacity="0.65" fill="#F2F7F7" d="M35.4915 41C35.4223 40.9985 35.3536 40.9883 35.287 40.9699C35.1102 40.916 34.9618 40.7955 34.8739 40.6342C34.786 40.473 34.7656 40.2839 34.8172 40.1079C35.2725 38.6791 35.8548 37.2931 36.5572 35.9662C38.1407 33.0441 39.8808 31.4926 41.7557 31.3375C43.9612 31.1608 46.0319 32.8718 48.0808 36.5653C48.9509 34.9965 50.7518 32.5442 53.301 32.4322C55.8502 32.3201 58.382 34.6345 60.8094 39.3278C60.852 39.4093 60.8779 39.4983 60.8857 39.5898C60.8936 39.6812 60.8832 39.7733 60.8551 39.8607C60.827 39.9482 60.7818 40.0293 60.7221 40.0994C60.6624 40.1696 60.5893 40.2274 60.5071 40.2695C60.4248 40.3117 60.335 40.3374 60.2427 40.3452C60.1504 40.3529 60.0574 40.3426 59.9692 40.3148C59.8809 40.287 59.7991 40.2422 59.7283 40.1831C59.6575 40.1239 59.5991 40.0515 59.5565 39.97C57.4119 35.8757 55.2629 33.7208 53.3663 33.8285C50.6213 33.9492 48.7899 38.328 48.7725 38.3711C48.7199 38.4943 48.6332 38.6001 48.5223 38.6764C48.4114 38.7527 48.2809 38.7963 48.1461 38.802C48.0095 38.8093 47.8739 38.7758 47.7568 38.7059C47.6397 38.636 47.5465 38.5329 47.4892 38.4098C45.5664 34.531 43.635 32.5787 41.8905 32.7252C39.089 32.9536 36.8226 38.4142 36.1875 40.4829C36.1466 40.6338 36.0558 40.7668 35.9296 40.8606C35.8035 40.9543 35.6492 41.0034 35.4915 41Z"></path>
</g>
<defs>
<clipPath id="clip0_1963_247">
<rect transform="translate(19 7)" fill="white" height="34" width="81"></rect>
</clipPath>
</defs>
</svg>
