<svg xmlns="http://www.w3.org/2000/svg" fill="none" viewBox="0 0 120 48" height="48" width="120">
<path fill-opacity="0.65" fill="#F2F7F7" d="M36.0982 9.06727L19.775 10.2721C18.4587 10.3862 18 11.2469 18 12.2787V30.1725C18 30.9765 18.286 31.6636 18.9735 32.5819L22.8106 37.5716C23.4409 38.3751 24.0137 38.547 25.2173 38.4895L44.1734 37.3421C45.7767 37.228 46.2353 36.4819 46.2353 35.2203V15.0891C46.2353 14.437 45.9778 14.2486 45.2189 13.6932C45.177 13.6627 45.1338 13.631 45.0889 13.5981L39.8784 9.92764C38.6186 9.01038 38.1028 8.89497 36.0982 9.06727ZM25.6465 14.7589C24.099 14.8637 23.7474 14.8875 22.8685 14.1719L20.6336 12.394C20.4057 12.1641 20.52 11.8773 21.0923 11.8204L36.7844 10.6733C38.1011 10.5584 38.7883 11.0179 39.304 11.4192L41.9954 13.3694C42.11 13.4265 42.3958 13.7702 42.0521 13.7702L25.8464 14.7455C25.7788 14.75 25.7133 14.7545 25.6499 14.7588L25.6477 14.7589L25.6465 14.7589ZM23.8414 35.0479V17.9573C23.8414 17.2119 24.0706 16.8676 24.7574 16.8097L43.3692 15.7204C44.0004 15.663 44.2863 16.0647 44.2863 16.8097V33.7855C44.2863 34.5317 44.1714 35.1634 43.1402 35.2203L25.3301 36.2532C24.2994 36.31 23.8414 35.9664 23.8414 35.0479ZM41.4236 18.8742C41.5378 19.3907 41.4236 19.907 40.9072 19.9651L40.049 20.1364V32.7537C39.304 33.1552 38.6169 33.3846 38.0444 33.3846C37.1278 33.3846 36.8982 33.0976 36.2116 32.2378L30.5985 23.4056V31.951L32.3747 32.3528C32.3747 32.3528 32.3747 33.3846 30.9417 33.3846L26.9911 33.6143C26.8763 33.3846 26.9911 32.8116 27.3918 32.6967L28.4228 32.4104V21.1118L26.9913 20.9968C26.8766 20.4802 27.1624 19.7352 27.9648 19.6773L32.2029 19.391L38.0444 28.3382V20.4232L36.5551 20.2519C36.4407 19.6201 36.8982 19.1616 37.471 19.1047L41.4236 18.8742Z" clip-rule="evenodd" fill-rule="evenodd"></path>
<path fill-opacity="0.65" fill="#F2F7F7" d="M58.7441 29.8968V22.118H58.8788L64.4872 29.8968H66.2537V18.4662H64.2892V26.2371H64.1545L58.5461 18.4662H56.7717V29.8968H58.7441Z"></path>
<path fill-opacity="0.65" fill="#F2F7F7" d="M71.8024 30.0712C74.3927 30.0712 75.969 28.376 75.969 25.5639C75.969 22.7596 74.3848 21.0565 71.8024 21.0565C69.2279 21.0565 67.6357 22.7675 67.6357 25.5639C67.6357 28.376 69.2041 30.0712 71.8024 30.0712ZM71.8024 28.4234C70.4319 28.4234 69.6478 27.3778 69.6478 25.5639C69.6478 23.7578 70.4319 22.7042 71.8024 22.7042C73.1648 22.7042 73.9491 23.7578 73.9491 25.5639C73.9491 27.3778 73.1728 28.4234 71.8024 28.4234Z"></path>
<path fill-opacity="0.65" fill="#F2F7F7" d="M77.7652 19.1079V21.2864H76.3948V22.8547H77.7652V27.5839C77.7652 29.2633 78.5573 29.9365 80.5455 29.9365C80.9259 29.9365 81.2904 29.8969 81.5755 29.8415V28.3047C81.3374 28.3285 81.1869 28.3443 80.9101 28.3443C80.0864 28.3443 79.7219 27.9641 79.7219 27.1087V22.8547H81.5755V21.2864H79.7219V19.1079H77.7652Z"></path>
<path fill-opacity="0.65" fill="#F2F7F7" d="M82.752 29.8967H84.7092V21.2307H82.752V29.8967ZM83.7268 19.7969C84.3765 19.7969 84.899 19.2741 84.899 18.6166C84.899 17.9591 84.3765 17.4283 83.7268 17.4283C83.0847 17.4283 82.5545 17.9591 82.5545 18.6166C82.5545 19.2741 83.0847 19.7969 83.7268 19.7969Z"></path>
<path fill-opacity="0.65" fill="#F2F7F7" d="M90.0755 30.0712C92.6659 30.0712 94.2426 28.376 94.2426 25.5639C94.2426 22.7596 92.6582 21.0565 90.0755 21.0565C87.5011 21.0565 85.9091 22.7675 85.9091 25.5639C85.9091 28.376 87.4777 30.0712 90.0755 30.0712ZM90.0755 28.4234C88.7052 28.4234 87.9209 27.3778 87.9209 25.5639C87.9209 23.7578 88.7052 22.7042 90.0755 22.7042C91.4383 22.7042 92.2226 23.7578 92.2226 25.5639C92.2226 27.3778 91.446 28.4234 90.0755 28.4234Z"></path>
<path fill-opacity="0.65" fill="#F2F7F7" d="M95.4111 29.8968H97.3758V24.8509C97.3758 23.5755 98.1122 22.7675 99.284 22.7675C100.481 22.7675 101.035 23.433 101.035 24.7558V29.8968H103V24.2885C103 22.221 101.946 21.0565 100.013 21.0565C98.7225 21.0565 97.8507 21.6506 97.4392 22.6171H97.3047V21.2308H95.4111V29.8968Z"></path>
</svg>
