<svg xmlns="http://www.w3.org/2000/svg" fill="none" viewBox="0 0 120 48" height="48" width="120">
<path fill-opacity="0.65" fill="#F2F7F7" d="M3.71779 23.6359C3.71779 19.737 5.82045 17.2401 9.2582 17.2401C11.5921 17.2401 13.3535 18.4176 13.9499 20.1899L17.5301 18.8718C16.4725 15.7306 13.3811 13.5707 9.347 13.5707C3.8353 13.5707 0 17.6042 0 23.6914C0 29.9465 4.02906 33.8183 9.40447 33.8183C11.5921 33.8183 13.2111 33.1728 14.2911 31.9385V33.5097H17.8951V23.2989H13.5773C11.1334 23.2989 9.22947 22.8867 7.6956 22.5164L7.15553 26.0229C9.25907 26.5239 11.4135 26.7864 13.5773 26.8054H14.2873C14.1161 28.6 12.3497 30.1711 9.59947 30.1711C6.38925 30.1711 3.71779 28.068 3.71779 23.6359ZM25.8533 33.6775C30.0299 33.6775 32.6725 30.6475 32.6725 26.2438C32.6725 21.8117 30.0299 18.8113 25.8533 18.8113C21.7055 18.8113 19.0353 21.8117 19.0353 26.2438C19.0353 30.6475 21.7055 33.6775 25.8533 33.6775ZM25.8533 22.2943C28.0135 22.2943 29.0923 23.7198 29.0923 26.2438C29.0923 28.7406 28.0097 30.1995 25.8533 30.1933C23.7231 30.1933 22.6155 28.7406 22.6155 26.2438C22.6155 23.7247 23.7281 22.2943 25.8533 22.2943ZM47.0199 26.2438C47.0199 30.6475 44.3772 33.6775 40.2019 33.6775C36.0528 33.6775 33.3851 30.6475 33.3851 26.2438C33.3851 21.8117 36.0553 18.8113 40.2044 18.8113C44.3772 18.8113 47.0199 21.8117 47.0199 26.2438ZM43.4397 26.2438C43.4397 23.7198 42.3608 22.2943 40.2019 22.2943C38.0767 22.2943 36.9629 23.7247 36.9629 26.2438C36.9629 28.7406 38.0705 30.1933 40.2019 30.1933C42.3608 30.1995 43.4397 28.7406 43.4397 26.2438ZM61.7373 33.5097V13.8744H58.1808V20.4097C57.2995 19.4 56.0207 18.8113 54.288 18.8113C50.2539 18.8113 47.725 21.813 47.725 26.2167C47.725 30.6204 50.2539 33.6776 54.288 33.6776C56.0494 33.6776 57.362 33.0037 58.2371 31.9669V33.5097H61.7373ZM54.748 22.261C56.8507 22.261 58.1858 23.663 58.1858 26.2167C58.1858 28.7406 56.8507 30.1995 54.748 30.1995C52.5029 30.1995 51.3103 28.6851 51.3103 26.2167C51.3103 23.7198 52.4979 22.261 54.748 22.261ZM75.8287 24.1679V33.5097H72.2767V24.3925C72.2767 23.0743 71.482 22.2943 69.8053 22.2943C67.4753 22.2943 66.85 23.7532 66.85 25.5477V33.5147H63.2987V13.8744H66.85V20.2417C67.674 19.3161 68.8393 18.8113 70.6007 18.8113C74.2373 18.8113 75.8287 20.9984 75.8287 24.1679ZM83.6413 33.6775C87.818 33.6775 90.4593 30.6475 90.4593 26.2438C90.4593 21.8117 87.818 18.8113 83.6413 18.8113C79.494 18.8113 76.822 21.8117 76.822 26.2438C76.822 30.6475 79.494 33.6775 83.6413 33.6775ZM83.6413 22.2943C85.8007 22.2943 86.8807 23.7198 86.8807 26.2438C86.8807 28.7406 85.8007 30.1995 83.6413 30.1933C81.51 30.1933 80.4027 28.7406 80.4027 26.2438C80.4027 23.7247 81.5167 22.2943 83.6413 22.2943ZM104.807 26.2438C104.807 30.6475 102.165 33.6775 97.9887 33.6775C93.8413 33.6775 91.1693 30.6475 91.1693 26.2438C91.1693 21.8117 93.8413 18.8113 97.9887 18.8113C102.165 18.8113 104.807 21.8117 104.807 26.2438ZM101.228 26.2438C101.228 23.7198 100.148 22.2943 97.9887 22.2943C95.864 22.2943 94.75 23.7247 94.75 26.2438C94.75 28.7406 95.8573 30.1933 97.9887 30.1933C100.148 30.1995 101.228 28.7406 101.228 26.2438ZM119.525 33.5097V13.8744H115.968V20.4097C115.088 19.4 113.809 18.8113 112.075 18.8113C108.041 18.8113 105.513 21.813 105.513 26.2167C105.513 30.6204 108.041 33.6776 112.075 33.6776C113.837 33.6776 115.149 33.0037 116.024 31.9669V33.5097H119.525ZM112.535 22.261C114.638 22.261 115.973 23.663 115.973 26.2167C115.973 28.7406 114.641 30.1995 112.535 30.1995C110.291 30.1995 109.097 28.6851 109.097 26.2167C109.097 23.7198 110.285 22.261 112.535 22.261Z" clip-rule="evenodd" fill-rule="evenodd"></path>
</svg>
