<svg xmlns="http://www.w3.org/2000/svg" fill="none" viewBox="0 0 120 48" height="48" width="120">
<g clip-path="url(#clip0_1963_208)">
<path fill-opacity="0.65" fill="#F2F7F7" d="M24.6605 33.4961C27.6826 33.4961 29.9119 32.3313 31.2248 30.7452L28.6982 28.5891C27.6826 29.7043 26.4193 30.2743 24.7349 30.2743C21.3165 30.2743 19.211 27.6969 19.211 24.5248C19.211 21.3526 21.3165 18.7256 24.6605 18.7256C26.2211 18.7256 27.5092 19.2708 28.5495 20.3613L31.0018 18.23C29.4413 16.3713 27.4844 15.5039 24.6605 15.5039C19.3101 15.5039 15.6193 19.5435 15.6193 24.5248C15.6193 29.4813 19.5083 33.4961 24.6605 33.4961ZM37.5367 33.4961C39.8403 33.4961 41.0045 32.5295 41.6981 31.0674V33.1739H44.9431V20.2869H41.6238V22.3191C40.9302 20.9313 39.766 20.0143 37.5367 20.0143C33.9945 20.0143 31.1706 23.0626 31.1706 26.78C31.1706 30.4974 33.9945 33.4961 37.5367 33.4961ZM34.5146 26.7552C34.5146 24.7478 35.9513 23.0378 38.0816 23.0378C40.2862 23.0378 41.6981 24.7726 41.6981 26.78C41.6981 28.7874 40.2862 30.4726 38.0816 30.4726C35.9513 30.4726 34.5146 28.713 34.5146 26.7552ZM46.9299 33.1739H50.274V15.0826H46.9299V33.1739ZM54.0352 33.4961C55.3233 33.4961 56.2398 32.5048 56.2398 31.3152C56.2398 30.1504 55.3233 29.1591 54.0352 29.1591C52.7472 29.1591 51.8059 30.1504 51.8059 31.3152C51.8059 32.5048 52.7472 33.4961 54.0352 33.4961ZM63.4264 33.4961C65.953 33.4961 67.7365 32.5791 68.9503 31.0178L66.5228 28.9113C65.854 29.8035 65.0118 30.4478 63.7237 30.4478C61.5934 30.4478 60.1319 28.7378 60.1319 26.7304C60.1319 24.723 61.5191 23.013 63.6494 23.013C64.7888 23.013 65.7796 23.583 66.3741 24.4752L68.9503 22.3687C67.8604 20.8569 65.953 19.94 63.5998 19.9648C59.6613 19.9895 56.7879 22.9882 56.7879 26.7304C56.7879 30.4726 59.7356 33.4961 63.4264 33.4961ZM75.817 33.4961C79.805 33.4961 82.6784 30.4726 82.6784 26.7552C82.6784 23.0378 79.805 19.9895 75.817 19.9895C71.8289 19.9895 68.9555 23.0378 68.9555 26.7552C68.9555 30.4726 71.8289 33.4961 75.817 33.4961ZM72.2995 26.7552C72.2995 24.7478 73.6867 23.0378 75.817 23.0378C77.9472 23.0378 79.3344 24.7478 79.3344 26.7552C79.3344 28.7626 77.9472 30.4478 75.817 30.4478C73.6867 30.4478 72.2995 28.7626 72.2995 26.7552ZM84.1585 33.1739H87.5025V26.1108C87.5025 23.8804 88.7658 22.9139 90.1777 22.9139C91.8374 22.9139 92.9521 23.8804 92.9521 26.1108V33.1739H96.2961V26.1108C96.2961 23.6326 97.3612 22.9139 98.9221 22.9139C100.433 22.9139 101.498 23.8804 101.498 26.1108V33.1739H104.842V25.293C104.842 22.0465 102.712 19.9895 99.9377 19.9895C97.6836 19.9895 96.4447 20.8569 95.5777 22.4182C94.7355 20.8569 93.1998 19.9895 91.3915 19.9895C89.4098 19.9895 88.1218 20.733 87.453 22.1704V20.2869H84.1585V33.1739Z"></path>
</g>
<defs>
<clipPath id="clip0_1963_208">
<rect transform="translate(15 15)" fill="white" height="19" width="90"></rect>
</clipPath>
</defs>
</svg>
